<svg xmlns="http://www.w3.org/2000/svg" width="30" height="18" viewBox="0 0 30 18">
  <g fill="#0A121F">
    <path d="M28 0L24 0C22.895 0 22 .895 22 2 22.552 2 23 2.448 23 3 23 3.552 22.552 4 22 4L22 6C22.552 6 23 6.448 23 7 23 7.552 22.552 8 22 8L22 10C22.552 10 23 10.448 23 11 23 11.552 22.552 12 22 12L22 14C22.552 14 23 14.448 23 15 23 15.552 22.552 16 22 16 22 17.105 22.895 18 24 18L28 18C29.105 18 30 17.105 30 16L30 2C30 .895 29.105 0 28 0zM21 3C21 2.448 21.448 2 22 2 22 .895 21.105 0 20 0L2 0C.895 0 0 .895 0 2L0 16C0 17.105.895 18 2 18L20 18C21.105 18 22 17.105 22 16 21.448 16 21 15.552 21 15 21 14.448 21.448 14 22 14L22 12C21.448 12 21 11.552 21 11 21 10.448 21.448 10 22 10L22 8C21.448 8 21 7.552 21 7 21 6.448 21.448 6 22 6L22 4C21.448 4 21 3.552 21 3zM15 10L11.2 10 8 14 7 14 8.6 10 5.721 10C5.291 10 4.908 9.725 4.772 9.316L4 7 5 7 5.667 8 8.6 8 7 4 8 4 11.2 8 15 8C15.552 8 16 8.448 16 9 16 9.552 15.552 10 15 10z"/>
    <rect width="6" height="1" x="7" y="7"/>
  </g>
</svg>
