<svg xmlns="http://www.w3.org/2000/svg" width="30" height="25" viewBox="0 0 30 25">
  <path fill="#FFFFFF" d="M9.984375,0.9863281 C9.43285884,0.994949173 8.99244734,1.44846818 9,2 L9,3 C8.99489971,3.36063592 9.1843753,3.69608136 9.49587285,3.87788772 C9.8073704,4.05969408 10.1926296,4.05969408 10.5041272,3.87788772 C10.8156247,3.69608136 11.0051003,3.36063592 11,3 L11,2 C11.0037014,1.72969968 10.8978233,1.46941339 10.7064903,1.27844834 C10.5151573,1.0874833 10.2546677,0.982106372 9.984375,0.9863281 Z M4.3320312,3.3320312 C3.92458631,3.33211405 3.55792536,3.57936519 3.40512525,3.95707338 C3.25232514,4.33478157 3.34393779,4.76742519 3.6367188,5.0507812 L4.34375,5.7578125 C4.59456824,6.01904595 4.9670151,6.12427512 5.31745262,6.03291731 C5.66789014,5.94155951 5.94155951,5.66789014 6.03291731,5.31745262 C6.12427512,4.9670151 6.01904595,4.59456824 5.7578125,4.34375 L5.0507812,3.6367188 C4.86236667,3.44198119 4.60299756,3.33203121 4.3320312,3.3320312 L4.3320312,3.3320312 Z M15.636719,3.3339844 C15.3769204,3.34172554 15.1303406,3.45030471 14.949219,3.6367188 L14.242188,4.34375 C13.9577326,4.6166902 13.860156,5.03127045 13.9930144,5.40243059 C14.1258728,5.77359074 14.4643756,6.0320745 14.857422,6.0625 C14.8912211,6.06487101 14.9251188,6.06552288 14.958984,6.0644531 C15.2227554,6.05821716 15.4733761,5.94800027 15.65625,5.7578125 L16.363281,5.0507812 C16.6590414,4.76328984 16.7479698,4.3237153 16.5872156,3.94386851 C16.4264614,3.56402173 16.0490025,3.32182599 15.636719,3.3339844 L15.636719,3.3339844 Z M10,6 C7.791,6 6,7.791 6,10 C6,11.903 7.3313281,13.488578 9.1113281,13.892578 C10.1603281,12.319578 11.875797,11.257641 13.841797,11.056641 C13.934797,10.718641 14,10.368 14,10 C14,7.791 12.209,6 10,6 Z M2,9 C1.63936408,8.99489971 1.30391864,9.1843753 1.12211228,9.49587285 C0.940305922,9.8073704 0.940305922,10.1926296 1.12211228,10.5041272 C1.30391864,10.8156247 1.63936408,11.0051003 2,11 L3,11 C3.36063592,11.0051003 3.69608136,10.8156247 3.87788772,10.5041272 C4.05969408,10.1926296 4.05969408,9.8073704 3.87788772,9.49587285 C3.69608136,9.1843753 3.36063592,8.99489971 3,9 L2,9 Z M21.5,10 C19.1907611,10.0024902 17.0562174,11.2299828 15.892578,13.224609 C15.4430789,13.0769993 14.9731138,13.0011986 14.5,13 C12.1101181,13.0028158 10.1393019,14.8732903 10.0117188,17.259766 C8.20996895,17.8911879 7.00277188,19.5908147 7,21.5 C7,23.9852814 9.01471863,26 11.5,26 L26.5,26 C28.9852814,26 31,23.9852814 31,21.5 C30.9978551,19.5765936 29.7734911,17.8671932 27.953125,17.246094 C27.9830503,16.9985012 27.9987012,16.7493913 28,16.5 C28,12.9101491 25.0898509,10 21.5,10 Z M5.03125,13.939453 C4.77145129,13.9471943 4.52487151,14.0557737 4.34375,14.242188 L3.6367188,14.949219 C3.37548098,15.2000363 3.27024846,15.5724853 3.36160572,15.9229255 C3.45296299,16.2733657 3.7266345,16.5470372 4.07707476,16.6383944 C4.42751501,16.7297515 4.799964,16.6245189 5.0507812,16.363281 L5.7578125,15.65625 C6.05357311,15.3687586 6.14250156,14.9291838 5.98174724,14.5493369 C5.82099292,14.16949 5.44353365,13.9272943 5.03125,13.939453 Z" transform="translate(-1 -1)"/>
</svg>
