<svg xmlns="http://www.w3.org/2000/svg" width="26" height="24" viewBox="0 0 26 24">
  <path fill="#FFFFFF" d="M15.5,0 C13.1,0 11.008812,1.3032813 9.882812,3.2382812 C9.444813,3.0962813 8.986,3 8.5,3 C6.17,3 4.277875,4.777875 4.046875,7.046875 C1.777875,7.277875 0,9.17 0,11.5 C0,13.985 2.015,16 4.5,16 L8.851562,16 L11.203125,10.511719 C11.599125,9.592719 12.499094,8.998047 13.496094,8.998047 C13.668094,8.998047 13.840859,9.016781 14.005859,9.050781 C15.160859,9.289781 16,10.32 16,11.5 L16,14 L16.5,14 C17.347,14 18.129031,14.422187 18.582031,15.117188 C18.762031,15.388188 18.866687,15.69 18.929688,16 L21.5,16 C23.985,16 26,13.985 26,11.5 C26,9.177 24.232656,7.287828 21.972656,7.048828 C21.987656,6.8678281 22,6.685 22,6.5 C22,2.91 19.09,0 15.5,0 Z M13.425781,11.003906 C13.256422,11.028187 13.109562,11.139234 13.039062,11.302734 L10.039062,18.302734 C9.974063,18.457734 9.989031,18.634391 10.082031,18.775391 C10.174031,18.915391 10.332,19 10.5,19 L13,19 L13,23.5 C13,23.737 13.166437,23.942234 13.398438,23.990234 C13.433437,23.997234 13.467,24 13.5,24 C13.697,24 13.880937,23.884266 13.960938,23.697266 L16.960938,16.697266 C17.025937,16.542266 17.010969,16.364609 16.917969,16.224609 C16.825969,16.083609 16.668,16 16.5,16 L14,16 L14,11.5 C14,11.263 13.833563,11.057766 13.601562,11.009766 C13.541812,10.997266 13.482234,10.995812 13.425781,11.003906 Z M3.984375,17.986328 C3.4328588,17.9949491 2.99244728,18.4484681 3,19 L3,20 C2.99489971,20.3606359 3.1843753,20.6960814 3.49587285,20.8778877 C3.8073704,21.0596941 4.1926296,21.0596941 4.50412715,20.8778877 C4.8156247,20.6960814 5.00510029,20.3606359 5,20 L5,19 C5.00370146,18.7296997 4.89782332,18.4694133 4.70649033,18.2784483 C4.51515734,18.0874832 4.25466771,17.9821063 3.984375,17.986328 L3.984375,17.986328 Z M21.984375,19.986328 C21.4328588,19.9949491 20.9924473,20.4484681 21,21 L21,22 C20.9948997,22.3606359 21.1843753,22.6960814 21.4958728,22.8778877 C21.8073704,23.0596941 22.1926296,23.0596941 22.5041272,22.8778877 C22.8156247,22.6960814 23.0051003,22.3606359 23,22 L23,21 C23.0037015,20.7296997 22.8978233,20.4694133 22.7064903,20.2784483 C22.5151573,20.0874832 22.2546677,19.9821063 21.984375,19.986328 Z"/>
</svg>
