<svg xmlns="http://www.w3.org/2000/svg" width="26" height="25" viewBox="0 0 26 25">
  <path fill="#FFFFFF" d="M16.5,0 C14.1,0 12.008812,1.3032813 10.882812,3.2382812 C10.444813,3.0962813 9.986,3 9.5,3 C7.17,3 5.277875,4.777875 5.046875,7.046875 C2.777875,7.277875 1,9.17 1,11.5 C1,11.671 1.0327813,11.834 1.0507812,12 L7.1699219,12 C7.0609219,11.687 7,11.351 7,11 C7,9.343 8.343,8 10,8 L11,8 C13.757,8 16,10.243 16,13 C16,14.13 15.609609,15.162 14.974609,16 L22.5,16 C24.985,16 27,13.985 27,11.5 C27,9.177 25.232656,7.287828 22.972656,7.048828 C22.987656,6.8678281 23,6.685 23,6.5 C23,2.91 20.09,0 16.5,0 Z M10,10 C9.63936408,9.99489971 9.30391864,10.1843753 9.12211228,10.4958728 C8.94030592,10.8073704 8.94030592,11.1926296 9.12211228,11.5041272 C9.30391864,11.8156247 9.63936408,12.0051003 10,12 L11,12 C11.56503,12 12,12.43497 12,13 C12,13.56503 11.56503,14 11,14 L2,14 C1.63936408,13.9948997 1.30391864,14.1843753 1.12211228,14.4958728 C0.940305922,14.8073704 0.940305922,15.1926296 1.12211228,15.5041272 C1.30391864,15.8156247 1.63936408,16.0051003 2,16 L11,16 C12.256622,16 13.14058,15.106694 13.583984,14 L14,14 L14,13 C14,11.35503 12.64497,10 11,10 L10,10 Z M4,18 C3.44771525,18 3,18.4477153 3,19 C3,19.5522847 3.44771525,20 4,20 C4.55228475,20 5,19.5522847 5,19 C5,18.4477153 4.55228475,18 4,18 Z M8,18 C7.63936408,17.9948997 7.30391864,18.1843753 7.12211228,18.4958728 C6.94030592,18.8073704 6.94030592,19.1926296 7.12211228,19.5041272 C7.30391864,19.8156247 7.63936408,20.0051003 8,20 L18.5,20 C19.340812,20 20,20.659188 20,21.5 C20,22.340812 19.340812,23 18.5,23 L17,23 C16.6393641,22.9948997 16.3039186,23.1843753 16.1221123,23.4958728 C15.9403059,23.8073704 15.9403059,24.1926296 16.1221123,24.5041272 C16.3039186,24.8156247 16.6393641,25.0051003 17,25 L18.5,25 C20.067305,25 21.354649,23.930183 21.794922,22.5 L22,22.5 L22,21.5 C22,19.578812 20.421188,18 18.5,18 L8,18 Z" transform="translate(-1)"/>
</svg>
