<svg height="24" viewBox="0 0 24 24" width="24" xmlns="http://www.w3.org/2000/svg"><g fill="#800080"><path d="m23 11h-22c-.55228475 0-1-.4477153-1-1 0-.33643382.16614033-.63406348.42085195-.81531995l10.88470315-8.90422733c.1798765-.17363969.424687-.28045272.6944449-.28045272s.5145684.10681303.6944449.28045272l6.3055551 5.158257v-1.43870972c0-.552.448-1 1-1h1c.552 0 1 .448 1 1v3.89285858l1.579148 1.29182147c.2547117.18125647.420852.47888613.420852.81531995 0 .5522847-.4477153 1-1 1z"/><path d="m2 10v12c0 1.105.895 2 2 2h16c1.105 0 2-.895 2-2v-12zm17 11h-14v-8h14z"/></g></svg>