<svg height="33" viewBox="0 0 132 33" width="132" xmlns="http://www.w3.org/2000/svg"><path d="m20.114713 18.3286281c-1.4169214 2.5613595-3.114713 4.0893719-3.114713 4.0893719h-12s-5-4.5-5-11v-4c0-.552.448-1 1-1h20c.552 0 1 .448 1 1v1.33670795c.4546055-.21590683.9631706-.33670795 1.5-.33670795 1.9332847 0 3.5 1.56671525 3.5 3.5 0 1.560071-1.1349896 2.8353264-2.9818155 3.9542688-.4363325.2643622-1.1378614.7025533-2.0286604 1.265504l-.049434.0312458c-.5504364.3479725-1.1374288.7209596-1.722447 1.0939687-.0351107.0223867-.0694336.0442753-.1029301.0656408zm1.3524357-3.2259246c.6438259-.4050875 1.1598257-.7259836 1.5146668-.9409723 1.3014134-.7884916 2.0181845-1.5938437 2.0181845-2.2437312 0-.8287153-.6712847-1.5-1.5-1.5s-1.5.6712847-1.5 1.5c0 .0667781-.0065455.1320274-.01903.1951414-.0579041 1.0583945-.2445942 2.0587693-.5138213 2.9895621zm-20.4671487 11.3152965c-.55228475 0-1-.4477153-1-1s.44771525-1 1-1h20c.5522847 0 1 .4477153 1 1s-.4477153 1-1 1zm41.7476636-23.54545455c.11838-.78787878.7694704-1.18181818 1.4205607-1.18181818.5623053 0 1.0950156.33333334 1.0950156 1.03030303 0 2.09090909-.6806854 8.1212121-.5919003 15.4545455 2.6043613-6.5757576 4.2912772-12.36363641 4.8831775-14.51515156.1183801-1.45454545.4735203-2.24242424 1.5685359-2.24242424.5623053 0 1.0950155.33333333 1.0950155 1.03030303 0 1.18181818-1.1246106 11.87878787-1.1246106 16.03030307 0 1.7272727.1479751 2.8484848.5327103 2.8484848.7398754 0 1.5389408-1.9393939 2.6635514-4.3333333.1775701-.3636364.3847352-.5454546.5327103-.5454546.1183801 0 .1775701.0909091.1775701.3030303 0 .1212122-.029595.3333334-.1183801.5454546-.8878504 2.2424242-2.012461 6.1212121-4.4096573 6.1212121-1.5093458 0-2.012461-2.9090909-2.012461-6.7272727 0-2.5151515.2367601-5.4545455.5031152-8.18181821-1.0358255 3.75757571-2.6339564 8.81818181-4.2616822 13.15151511-.2071651.5757576-.8582555.8787879-1.4797508.8787879-.5327103 0-1.0062305-.2121212-1.0358255-.7575757-.0887851-1.3333334-.1775701-3.5454546-.1775701-6.1515152 0-2.3333333.05919-4.969697.2367601-7.57575756-2.2196262 7.90909086-3.9953271 13.54545456-4.5280374 14.69696966-.1479751.3030303-.3551402.4242425-.6214953.4242425-.5031153 0-1.0950156-.5454546-1.0950156-1.1818182 0-1 3.6105919-6.8181818 6.6292835-18.36363639 0 0 .05919-.3030303.1183801-.75757576zm15.4603901 3.54545455c-.8322148 0-1.2080537-.59863946-1.2080537-1.30612245 0-1.17006803.9395973-2.69387755 2.4161074-2.69387755 1.1006711 0 1.5838926.65306122 1.5838926 1.41496599 0 1.14285714-1.1006711 2.58503401-2.7919463 2.58503401zm.9212566 2.56621881c0 1.62763919-2.5043103 9.02879079-2.5043103 11.39347409 0 .6449136.1508621 1.0134357.5431034 1.0134357 1.1163794 0 2.7758621-3.7159309 3.1077587-4.3915547.1810345-.3378119.3620689-.5220729.512931-.5220729.1206897 0 .2112069.1228407.2112069.3071017 0 .1535509-.0301724.3071017-.1206897.5220729-.4224137 1.0748561-2.1724137 6.1113244-4.7068965 6.1113244-1.1767241 0-2.1724138-.8598848-2.1724138-3.1631478 0-1.8426104 1.1465517-7.5239923 2.3534483-12.03838771.150862-.52207294.6336207-.79846449 1.2068965-.79846449.7543104 0 1.5689655.52207294 1.5689655 1.56621881zm15.3952511-8.56621881c.5368421 0 .9842105.29262087 1.1929825.58524173.745614.4389313 1.2824561.93638677 1.2824561 2.89694657 0 4.18447837-2.4157895 12.1145038-5.845614 12.1145038-.0894737 0-.1491228-.0292621-.2385965-.0292621-.2385965 1.5216285-.3877193 2.8384224-.3877193 3.716285 0 1.2582697.3578947 1.8435115 1.1929824 1.8435115 1.5807018 0 3.4298246-2.2824428 4.4736842-4.3307888.1491228-.321883.3280702-.4389313.477193-.4389313.1192983 0 .208772.1170483.208772.3218829 0 .1170484-.0298246.2340967-.0894737.4096692-.9245614 2.2531807-3.4894737 5.9109415-6.054386 5.9109415-2.0280702 0-2.7140351-1.7849873-2.7140351-4.4185751-1.222807 2.1068703-3.2807017 4.4185751-5.3087719 4.4185751s-2.7140351-1.7849873-2.7140351-4.4185751c0-1.6679389.2684211-3.6870229.6859649-5.7938931 1.1035088-5.8524173 2.7140351-11.55852417 5.3982456-11.79262086.4473684 0 .8649123.14631043 1.1631579.38040713.4473684.11704834 1.1929825.40966921 1.1929825 2.25318066 0 3.65776081-2.3859649 11.52926207-5.6070176 12.29007637-.2087719 1.3460559-.3280701 2.5458015-.3280701 3.3651399 0 1.2582697.3578947 1.8435115 1.1929824 1.8435115 1.5210526 0 3.3105263-2.1361324 4.3842105-4.1552163.4175439-5.9402036 3.2807018-16.9720102 6.4421053-16.9720102zm.3930006 1c-1.0002286.41970021-3.0006858 8.30406852-3.917562 14 2.5839238-2.5182013 4.4176762-10.22269807 3.917562-14zm-7.980391 1c-1.1420801.73363431-3.0355288 7.8058691-3.937171 13 2.3442698-2.6704289 4.3879921-9.4785553 3.937171-13zm13.2708827 4c-.8322148 0-1.2080537-.59863946-1.2080537-1.30612245 0-1.17006803.9395973-2.69387755 2.4161074-2.69387755 1.1006711 0 1.5838926.65306122 1.5838926 1.41496599 0 1.14285714-1.1006711 2.58503401-2.7919463 2.58503401zm.9212566 2.56621881c0 1.62763919-2.5043103 9.02879079-2.5043103 11.39347409 0 .6449136.1508621 1.0134357.5431034 1.0134357 1.1163794 0 2.7758621-3.7159309 3.1077587-4.3915547.1810345-.3378119.3620689-.5220729.512931-.5220729.1206897 0 .2112069.1228407.2112069.3071017 0 .1535509-.0301724.3071017-.1206897.5220729-.4224137 1.0748561-2.1724137 6.1113244-4.7068965 6.1113244-1.1767241 0-2.1724138-.8598848-2.1724138-3.1631478 0-1.8426104 1.1465517-7.5239923 2.3534483-12.03838771.150862-.52207294.6336207-.79846449 1.2068965-.79846449.7543104 0 1.5689655.52207294 1.5689655 1.56621881zm2.0091512 24.43378119c-1.7538461 0-3.1384615-1.2828162-3.1384615-2.9236277 0-3.1622912 3.3230769-4.7434367 6.5230769-6.6229117l.8615385-4.2064439c-1.0769231 2.5059666-2.4615385 4.0871122-3.6 4.0871122-1.6615385 0-2.3692308-1.7303103-2.3692308-4.0572793 0-4.5346062 2.7076923-11.2768496 6.2461539-11.2768496 1.2615384 0 1.9384615 1.28281623 2 2.2076372h.2153846c.7692307 0 1.7230769.6264917 1.7230769 1.7899762 0 1.1336515-.5538462 3.1026253-1.7538462 9.24821 1.3538462-1.0739857 2.5538462-2.4164678 3.4153847-4.1467781.1538461-.3281622.3692307-.4773269.5230769-.4773269.1230769 0 .2153846.0894988.2153846.2983293 0 .1193318-.0615385.2983294-.1230769.477327-1.1076923 2.6551313-2.7692308 4.4749403-4.4923077 5.8472554-1.2615385 5.8472553-3.2923077 9.7553699-6.2461539 9.7553699zm6.4448718-20.814433.4166667-2.1030928c-.0320513-.4020618-.0961538-1.0824742-.8974359-1.0824742-2.1474359 0-4.1025641 7.2371134-4.1025641 10.4845361 0 .927835.1602564 1.5154639.5448718 1.5154639 1.5064103 0 3.0769231-3.9896907 4.0384615-8.814433zm-2.7781385 13.7689785.1948052-.9545455c-2.3051948 1.4954545-5 3.1818182-5 5.5681818 0 .7318182.4220779 1.4318182 1.1688312 1.4318182 1.038961 0 2.5-1.3045455 3.6363636-6.0454545zm9.0022318-6.9718865-.4936134 3.0635838c-.0925526.6358381-.6170169.9537572-1.1414812.9537572-.586166 0-1.172332-.4046243-1.172332-1.2716763 0-2.0231214 1.0489286-7.716763 2.4372165-12.16763006.1542542-.49132948.6478677-.72254335 1.172332-.72254335.7095694 0 1.5116913.46242774 1.5116913 1.27167631 0 .4913295-.3702101 1.2138728-.5244643 1.734104 1.1106303-2.2254335 2.4680675-3.8439306 3.9797585-3.8439306 1.141481 0 1.573393.63583815 1.573393 1.8786127 0 1.6184971-1.48084 4.3063584-1.48084 5.3179191 0 .4046243.246806.6358381.709569.6358381 1.018078 0 2.282962-2.1098265 2.807427-3.2369942.185105-.433526.401061-.6936416.586166-.6936416.339359 0 .215956.6069364.154254.8092486-.462763 1.6473988-2.252112 4.2485549-4.38082 4.2485549-1.234033 0-2.4063654-.4913295-2.4063654-2.2254336 0-1.5895953 1.3574374-3.5260115 1.3574374-4.4219653 0-.2023121-.092553-.3468208-.308509-.3468208-1.0489284 0-3.5786975 4.132948-4.3808194 9.0173411zm16.9703514-6.6927757c-.8 3.7062256-1.837037 6.8579766-1.837037 8.2587548 0 .4377432.148148.729572.414815.729572.622222 0 1.54074-1.5466926 2.933333-4.3774319.148148-.3210117.385185-.4961089.533333-.4961089.088889 0 .177778.0875486.177778.2918288 0 .1167315-.02963.2918287-.118519.4961089-.414814 1.0214008-2.281481 5.807393-4.562962 5.807393-.918519 0-2.014815-.4961089-2.014815-2.6848249 0-.1459144 0-.3501946.029629-.5544747-.977777 1.9844358-2.103703 3.2392996-3.051852 3.2392996-1.6 0-2.281481-1.692607-2.281481-3.9688716 0-4.4357977 2.607407-11.0311284 6.014815-11.0311284 1.185185 0 1.925926 1.25486381 1.985185 2.1595331h.177778c.740741 0 1.629629.6128404 1.629629 1.692607 0 .1459144 0 .2918288-.029629.4377432zm-6.229391 8.7101167c1.193548 0 2.612903-2.9381443 3.419355-6.371134l1.032258-4.4536083c0-.5257732-.096774-1.1752577-.870968-1.1752577-2.16129 0-4.129032 7.2371134-4.129032 10.4845361 0 .927835.16129 1.5154639.548387 1.5154639zm9.826206 1.0332031c-.087948.5566407-.615635.8496094-1.172639.8496094-.586319 0-1.201954-.3808594-1.201954-1.1425781 0-.9960938 1.172638-7.9101563 2.491857-12.36328127.146579-.52734375.615635-.76171875 1.08469-.76171875.703583 0 1.436482.49804687 1.436482 1.34765622 0 .1464844 0 .2929688-.322475 1.40625.967426-1.99218747 2.140065-3.3691406 3.517915-3.3691406 2.550489 0 2.345277 2.3730469 1.934853 4.1894531.996743-2.4023437 2.257329-4.1894531 3.63518-4.1894531 1.729641 0 2.169381 1.37695313 2.169381 2.4609375 0 3.2519531-2.491857 8.5253906-2.491857 10.4589844 0 .46875.117264.7324219.498371.7324219 1.260587 0 3.019544-4.2480469 3.34202-4.8632813.14658-.3222656.351791-.4980469.498371-.4980469.117264 0 .205212.1171875.205212.3222657 0 .1171875-.029316.2636718-.117264.46875-.410423 1.0253906-1.964169 5.9179687-4.514658 5.9179687-1.172638 0-2.286645-.8203125-2.286645-2.578125 0-2.5488281 2.315961-7.96875 2.315961-9.9023437 0-.4394532-.117264-.703125-.410423-.703125-.762215 0-2.638437 2.9296875-3.899023 7.6757812-.29316 1.3769531-.644951 2.9003906-.996743 4.5996094-.117264.5273437-.644951.8203125-1.201954.8203125-.674267 0-1.37785-.4394531-1.37785-1.3769531 0-1.2597657 2.022801-8.1152344 2.022801-10.6347657 0-.6445312-.14658-1.0546875-.469055-1.0546875-1.348535 0-3.693811 5.8300782-4.690554 12.1875z" transform="translate(0 -.418)"/></svg>