<svg height="14" viewBox="0 0 12 14" width="12" xmlns="http://www.w3.org/2000/svg"><path d="m.03490103 6.80010485c.92266436-2.36401353 2.65029837-4.33067908 4.93750363-5.54680769 2.04852827-1.08922181 4.34745597-1.47157451 6.59404994-1.13491852.2501885.03749118.4348662.2530467.4335383.50602517l-.0670079 12.76528569c-.0020586.392165-.4281887.6347659-.766467.4363588l-10.91497719-6.40185813c-.21574692-.12654-.30757884-.39108492-.21663978-.62408532zm4.46509897 1.19989515c.82842712 0 1.5-.67157288 1.5-1.5s-.67157288-1.5-1.5-1.5-1.5.67157288-1.5 1.5.67157288 1.5 1.5 1.5zm5-3c.8284271 0 1.5-.67157288 1.5-1.5s-.6715729-1.5-1.5-1.5c-.82842712 0-1.5.67157288-1.5 1.5s.67157288 1.5 1.5 1.5zm0 6c.8284271 0 1.5-.6715729 1.5-1.5 0-.82842712-.6715729-1.5-1.5-1.5-.82842712 0-1.5.67157288-1.5 1.5 0 .8284271.67157288 1.5 1.5 1.5z" fill="#fff"/></svg>