<svg height="12" viewBox="0 0 16 12" width="16" xmlns="http://www.w3.org/2000/svg"><g fill="#fff" fill-rule="evenodd"><path d="m.5.5.5-.5 14.587 10.19-1.174 1.62z" fill-rule="nonzero"/><path d="m1.22839409 2.21450739 1.51909924-1.89887405c.14728366-.18410458.40316309-.24030513.6140412-.13486607l1.01798975.50899487c.24698925.12349463.34710142.42383114.2236068.67082039-.02403373.04806746-.05565955.09194594-.09366021.1299466l-2.07820506 2.07820506c-.19526215.19526215-.51184464.19526215-.70710679 0-.02328219-.02328219-.0442077-.04880721-.06247175-.07620329l-.45888393-.68832589c-.1207798-.1811697-.11042966-.41967211.02559075-.58969762zm3.26213504 3.29496348 3.10182039-3.10182039c.19526214-.19526214.51184463-.19526214.70710678 0 .01672974.01672975.03225095.03462585.04644661.05355339l.87302499 1.16403333c.15810598.21080797.12546737.50813828-.07460432.6796283l-2.89225982 2.47907985c-.15274095.13092081-.36906903.15755202-.54900248.06758529l-1.08258556-.54129278c-.24698925-.12349462-.34710142-.42383114-.2236068-.67082039.02403373-.04806746.05565955-.09194594.09366021-.1299466zm3.41712135 3.08287865 3.28571432-3.28571429c.1759459-.17594598.4544932-.19574172.6535534-.04644661l1.1918779.89390847c.2209139.16568543.2656854.4790861.1.7-.0141956.01892755-.0297168.03682365-.0464466.05355339l-3.28571427 3.28571432c-.17594598.1759459-.45449324.1957417-.65355339.0464466l-1.19187797-.89390849c-.22091389-.16568543-.26568542-.4790861-.1-.7.01419567-.01892755.02971687-.03682365.04644661-.05355339z"/></g></svg>