<svg xmlns="http://www.w3.org/2000/svg" width="52" height="46" viewBox="0 0 52 46">
  <path fill="#FFFFFF" d="M31,0 C26.3815221,0.00498050521 22.1124345,2.45996606 19.785156,6.4492188 C18.8861578,6.15399913 17.9462276,6.00239745 17,6 C12.3945697,6.00293033 8.53441909,9.48212291 8.0546876,14.0625 C3.48037349,14.5456295 0.006499945,18.4002477 4.4408921e-16,23 C-3.10862447e-15,25.3869484 0.948211563,27.6761336 2.63603897,29.363961 C4.32386638,31.0517884 6.61305159,32 9,32 L43,32 C47.9705627,32 52,27.9705627 52,23 C51.9974914,18.3972594 48.5225936,14.5381347 43.945312,14.054688 C43.97782,13.7040112 43.9960644,13.3521583 44,13 C44,5.82029825 38.1797017,2.66453526e-15 31,0 Z M7.96875,35.972656 C6.86571761,35.9898981 5.98489456,36.8969363 6,38 L6,40 C5.98979942,40.7212718 6.36875059,41.3921627 6.9917457,41.7557754 C7.61474081,42.1193882 8.38525919,42.1193882 9.0082543,41.7557754 C9.63124941,41.3921627 10.0102006,40.7212718 10,40 L10,38 C10.0074029,37.4593993 9.79564665,36.9388267 9.41298067,36.5568966 C9.03031468,36.1749664 8.50933542,35.9642125 7.96875,35.972656 L7.96875,35.972656 Z M31.96875,35.972656 C30.8657176,35.9898981 29.9848946,36.8969363 30,38 L30,40 C29.9897994,40.7212718 30.3687506,41.3921627 30.9917457,41.7557754 C31.6147408,42.1193882 32.3852592,42.1193882 33.0082543,41.7557754 C33.6312494,41.3921627 34.0102006,40.7212718 34,40 L34,38 C34.0074029,37.4593993 33.7956466,36.9388267 33.4129807,36.5568966 C33.0303147,36.1749664 32.5093354,35.9642125 31.96875,35.972656 L31.96875,35.972656 Z M19.96875,39.972656 C18.8657176,39.9898981 17.9848946,40.8969363 18,42 L18,44 C17.9897994,44.7212718 18.3687506,45.3921627 18.9917457,45.7557754 C19.6147408,46.1193882 20.3852592,46.1193882 21.0082543,45.7557754 C21.6312494,45.3921627 22.0102006,44.7212718 22,44 L22,42 C22.0074029,41.4593993 21.7956466,40.9388267 21.4129807,40.5568966 C21.0303147,40.1749664 20.5093354,39.9642125 19.96875,39.972656 Z M43.96875,39.972656 C42.8657176,39.9898981 41.9848946,40.8969363 42,42 L42,44 C41.9897994,44.7212718 42.3687506,45.3921627 42.9917457,45.7557754 C43.6147408,46.1193882 44.3852592,46.1193882 45.0082543,45.7557754 C45.6312494,45.3921627 46.0102006,44.7212718 46,44 L46,42 C46.0074029,41.4593993 45.7956466,40.9388267 45.4129807,40.5568966 C45.0303147,40.1749664 44.5093354,39.9642125 43.96875,39.972656 Z"/>
</svg>
