<svg xmlns="http://www.w3.org/2000/svg" width="24" height="22" viewBox="0 0 24 22">
  <path fill="#FFFFFF" d="M7 22L17 22C17.5522847 22 18 21.5522847 18 21 18 20.4477153 17.5522847 20 17 20L7 20C6.44771525 20 6 20.4477153 6 21 6 21.5522847 6.44771525 22 7 22zM22 0L2 0C.895 0 0 .895 0 2L0 16C0 17.105.895 18 2 18L22 18C23.105 18 24 17.105 24 16L24 2C24 .895 23.105 0 22 0zM12 17C11.448 17 11 16.552 11 16 11 15.448 11.448 15 12 15 12.552 15 13 15.448 13 16 13 16.552 12.552 17 12 17zM22 14L2 14 2 2 22 2 22 14z"/>
</svg>
