<svg xmlns="http://www.w3.org/2000/svg" width="22" height="24" viewBox="0 0 22 24">
  <g fill="#FFFFFF">
    <circle cx="19.5" cy="2.5" r="2.5"/>
    <path d="M13,19.5 C13,21.433 11.434,23 9.502,23 C7.567,23 6,21.433 6,19.5 C6,17.567 7.567,16 9.502,16 C11.434,16 13,17.567 13,19.5 Z"/>
    <path d="M20.37,14.894 C20.442,12.5 24.59,5.55 18.325,2.564 L18.325,2.564 C11.675,-0.657 9.08,6.696 7.183,8.157 C5.576,9.397 0.896,9.164 0.339,12.003 C2.59,11.181 6.902,11.371 12.319,14.318 C12.397,14.36 12.239,14.28 12.319,14.318 C17.882,16.981 19.946,20.493 20.599,22.8 C22.575,20.684 20.307,16.924 20.37,14.894 Z"/>
    <path d="M3.355,2.949 C4.919,2.949 7.893,3.696 11.547,5.792 C16.052,8.377 18.278,10.804 18.708,11.822 C18.493,11.912 18.175,12 17.827,12 C16.148,12 12.014,10.66 8.536,8.665 C4.088,6.113 2.499,4.074 2.239,3.105 C2.526,3.022 2.93,2.949 3.355,2.949 L3.355,2.949 Z M3.355,0.949 C2.153,0.949 0.714,1.345 0.341,2 C-0.459,4.25 2.19,7.33 7.541,10.4 C11.033,12.403 15.565,14 17.827,14 C19.031,14 20.225,13.455 20.6,12.8 C21.674,10.911 17.893,7.128 12.542,4.057 C9.05,2.054 5.617,0.949 3.355,0.949 L3.355,0.949 Z" transform="translate(0 10)"/>
  </g>
</svg>
