<svg xmlns="http://www.w3.org/2000/svg" width="25" height="25" viewBox="0 0 25 25">
  <g fill="#FFFFFF">
    <path d="M22,15.238 L22,22.719 L16,21.219 L16,18.051 L14,15.238 L14,21.246 L9,22.675 L9,6.781 L9.011,6.778 C9.029,6.039 9.138,5.323 9.325,4.638 L8.537,4.835 C8.197,4.92 7.84,4.914 7.502,4.818 L1.339,3.056 C0.668,2.865 0,3.368 0,4.066 L0,21.245 C0,22.138 0.592,22.923 1.45,23.168 L7.644,24.938 C7.877,25.004 8.123,25.004 8.356,24.938 L14.503,23.182 C14.84,23.086 15.197,23.08 15.538,23.165 L22.696,24.955 C23.358,25.121 24,24.619 24,23.936 L24,13.643 L22,15.238 Z M7,22.674 L2,21.246 L2,5.326 L7,6.754 L7,22.674 Z"/>
    <path d="M18,0 C14.134,0 11,3.134 11,7 C11,11.604 15.551,13.745 16.121,14.258 C16.703,14.782 17.184,15.833 17.379,16.499 C17.473,16.822 17.738,16.986 18,16.993 C18.263,16.986 18.527,16.822 18.621,16.499 C18.815,15.834 19.296,14.782 19.879,14.258 C20.449,13.745 25,11.604 25,7 C25,3.134 21.866,0 18,0 Z M18,9 C16.895,9 16,8.105 16,7 C16,5.895 16.895,5 18,5 C19.105,5 20,5.895 20,7 C20,8.105 19.105,9 18,9 Z"/>
  </g>
</svg>
