<svg xmlns="http://www.w3.org/2000/svg" width="22" height="24" viewBox="0 0 22 24">
  <path fill="#FFFFFF" d="M20.234 18C20.663 18 21.005 18.358 20.986 18.787 20.876 21.234 20.086 24 17 24 15.403 24 14.018 22.404 14 20 13.997 19.687 13.998 19.176 13.998 18.748 13.999 18.334 14.334 18 14.748 18L20.234 18zM19.454 14C20.378 14 21.184 13.369 21.398 12.471 21.666 11.343 21.975 9.813 21.998 8.677 22.069 4.971 20.426 0 17 0 13.216 0 12.871 5.485 13.017 7.438 13.133 8.998 13.45 10.977 13.692 12.351 13.861 13.307 14.691 14 15.661 14L19.454 14zM7.25 18C7.664 18 8 18.336 8 18.75L8 20C7.982 22.405 6.597 24 5 24 1.878 24 1.123 21.504 1.015 18.789.998 18.36 1.337 18 1.766 18L7.25 18zM6.339 14C7.31 14 8.139 13.307 8.308 12.351 8.551 10.976 8.867 8.998 8.983 7.438 9.129 5.485 8.784 0 5 0 1.574 0-.07 4.971.003 8.677.025 9.813.334 11.342.603 12.471.816 13.369 1.623 14 2.547 14L6.339 14z"/>
</svg>
