<svg xmlns="http://www.w3.org/2000/svg" width="22" height="22" viewBox="0 0 22 22">
  <path fill="#FFFFFF" d="M20,0 L2,0 C0.895,0 0,0.895 0,2 L0,20 C0,21.105 0.895,22 2,22 L20,22 C21.105,22 22,21.105 22,20 L22,2 C22,0.895 21.105,0 20,0 Z M15.707,11.707 L10.147,17.267 C9.959,17.455 9.705,17.56 9.44,17.56 C9.175,17.56 8.92,17.455 8.733,17.267 L6.28,14.814 C5.889,14.423 5.889,13.791 6.28,13.4 C6.671,13.009 7.303,13.009 7.694,13.4 L9.44,15.146 L14.293,10.293 C14.684,9.902 15.316,9.902 15.707,10.293 C16.098,10.684 16.098,11.316 15.707,11.707 Z M20,6 L2,6 L2,2 L20,2 L20,6 Z"/>
</svg>
