<svg xmlns="http://www.w3.org/2000/svg" width="26" height="26" viewBox="0 0 26 26">
  <g fill="#FFFFFF">
    <path d="M25,12 L24.828,12 C24.35,12 23.924,11.663 23.848,11.191 C23.811,10.962 23.767,10.735 23.716,10.511 C23.61,10.047 23.874,9.578 24.313,9.396 L24.469,9.331 C24.979,9.12 25.222,8.535 25.01,8.024 L25.01,8.024 C24.799,7.514 24.214,7.271 23.703,7.483 L23.543,7.549 C23.102,7.732 22.582,7.584 22.329,7.179 C22.207,6.983 22.079,6.791 21.945,6.603 C21.668,6.215 21.732,5.679 22.069,5.342 L22.191,5.22 C22.582,4.829 22.582,4.196 22.191,3.806 L22.191,3.806 C21.8,3.415 21.167,3.415 20.777,3.806 L20.656,3.93 C20.319,4.267 19.783,4.331 19.395,4.054 C19.207,3.92 19.015,3.792 18.819,3.67 C18.414,3.418 18.266,2.897 18.449,2.456 L18.515,2.296 C18.726,1.786 18.484,1.201 17.974,0.989 C17.464,0.778 16.879,1.02 16.667,1.53 L16.602,1.686 C16.42,2.125 15.951,2.389 15.487,2.283 C15.263,2.232 15.036,2.188 14.807,2.151 C14.337,2.076 14,1.65 14,1.172 L14,1 C14,0.448 13.552,0 13,0 C12.448,0 12,0.448 12,1 L12,1.172 C12,1.65 11.663,2.076 11.191,2.152 C10.962,2.189 10.735,2.233 10.511,2.284 C10.047,2.39 9.578,2.126 9.396,1.687 L9.331,1.531 C9.12,1.021 8.535,0.778 8.024,0.99 C7.514,1.201 7.271,1.786 7.483,2.297 L7.549,2.457 C7.733,2.897 7.586,3.418 7.18,3.67 C6.984,3.792 6.792,3.92 6.605,4.053 C6.217,4.33 5.681,4.267 5.344,3.93 L5.222,3.808 C4.831,3.417 4.198,3.417 3.808,3.808 L3.808,3.808 C3.418,4.199 3.418,4.832 3.808,5.222 L3.93,5.344 C4.267,5.681 4.33,6.216 4.053,6.605 C3.92,6.792 3.792,6.984 3.67,7.18 C3.418,7.586 2.897,7.733 2.456,7.55 L2.296,7.484 C1.786,7.273 1.201,7.515 0.989,8.025 L0.989,8.025 C0.778,8.535 1.02,9.12 1.53,9.332 L1.686,9.397 C2.125,9.579 2.389,10.048 2.283,10.512 C2.232,10.736 2.188,10.963 2.151,11.192 C2.076,11.663 1.65,12 1.172,12 L1,12 C0.448,12 0,12.448 0,13 L0,13 C0,13.552 0.448,14 1,14 L1.172,14 C1.65,14 2.076,14.337 2.152,14.809 C2.189,15.038 2.233,15.265 2.284,15.489 C2.39,15.953 2.126,16.422 1.687,16.604 L1.531,16.669 C1.021,16.88 0.778,17.465 0.99,17.976 L0.99,17.976 C1.201,18.486 1.786,18.729 2.297,18.517 L2.457,18.451 C2.898,18.268 3.418,18.416 3.671,18.821 C3.793,19.017 3.921,19.209 4.055,19.397 C4.332,19.785 4.268,20.321 3.931,20.658 L3.809,20.78 C3.418,21.171 3.418,21.804 3.809,22.194 C4.2,22.584 4.833,22.585 5.223,22.194 L5.345,22.072 C5.682,21.735 6.218,21.671 6.606,21.948 C6.794,22.082 6.986,22.21 7.182,22.332 C7.587,22.584 7.735,23.105 7.552,23.546 L7.486,23.706 C7.275,24.216 7.517,24.801 8.027,25.013 C8.537,25.224 9.122,24.982 9.334,24.472 L9.399,24.316 C9.581,23.877 10.05,23.613 10.514,23.719 C10.738,23.77 10.965,23.814 11.194,23.851 C11.663,23.924 12,24.35 12,24.828 L12,25 C12,25.552 12.448,26 13,26 C13.552,26 14,25.552 14,25 L14,24.828 C14,24.35 14.337,23.924 14.809,23.848 C15.038,23.811 15.265,23.767 15.489,23.716 C15.953,23.61 16.422,23.874 16.604,24.313 L16.669,24.469 C16.88,24.979 17.465,25.222 17.976,25.01 C18.486,24.799 18.729,24.214 18.517,23.703 L18.451,23.543 C18.268,23.102 18.416,22.582 18.821,22.329 C19.017,22.207 19.209,22.079 19.397,21.945 C19.785,21.668 20.321,21.732 20.658,22.069 L20.78,22.191 C21.171,22.582 21.804,22.582 22.194,22.191 C22.584,21.8 22.585,21.167 22.194,20.777 L22.072,20.655 C21.735,20.318 21.671,19.782 21.948,19.394 C22.082,19.206 22.21,19.014 22.332,18.818 C22.584,18.413 23.105,18.265 23.546,18.448 L23.706,18.514 C24.216,18.725 24.801,18.483 25.013,17.973 L25.013,17.973 C25.224,17.463 24.982,16.878 24.472,16.666 L24.316,16.601 C23.877,16.419 23.613,15.95 23.719,15.486 C23.77,15.262 23.814,15.035 23.851,14.806 C23.924,14.337 24.35,14 24.828,14 L25,14 C25.552,14 26,13.552 26,13 L26,13 C26,12.448 25.552,12 25,12 Z M13,21 C8.582,21 5,17.418 5,13 C5,8.582 8.582,5 13,5 C17.418,5 21,8.582 21,13 C21,17.418 17.418,21 13,21 Z"/>
    <rect width="9" height="2" x="13" y="12"/>
    <rect width="9" height="2" x="6.25" y="8.103" transform="rotate(59.999 10.75 9.103)"/>
    <rect width="9.5" height="2" x="6.125" y="15.68" transform="rotate(120.001 10.875 16.68)"/>
    <circle cx="13" cy="13" r="2"/>
  </g>
</svg>
