<svg xmlns="http://www.w3.org/2000/svg" width="39" height="46" viewBox="0 0 39 46">
  <path fill="#FFFFFF" d="M18.21875,0 C16.980469,0 16.015625,1.175781 16.257813,2.390625 L16.78125,5 L16.765625,5 L8.621094,9.074219 L2.523438,11.046875 C2.34375,11.105469 2.1875,11.214844 2.0625,11.359375 L1.234375,12.359375 C1.058594,12.566406 0.976563,12.835938 1.003906,13.101563 C1.035156,13.371094 1.167969,13.617188 1.378906,13.78125 L8.632813,19.539063 L8.9375,24.132813 C8.988281,24.835938 9.410156,25.4375 10,25.753906 L10,28 C10,28.070313 10.015625,28.136719 10.019531,28.207031 C9.429688,28.492188 8.988281,29.054688 8.902344,29.742188 L7.144531,43.769531 C7,44.945313 7.953125,46 9.128906,46 L28.871094,46 C30.042969,46 31,44.945313 30.851563,43.769531 L30.851563,43.765625 L29.097656,29.746094 L29.097656,29.742188 C29.015625,29.054688 28.570313,28.492188 27.980469,28.207031 C27.984375,28.136719 28,28.070313 28,28 L28,25.753906 C28.589844,25.4375 29.011719,24.835938 29.0625,24.132813 L29.925781,11.132813 C29.929688,11.085938 29.921875,11.042969 29.921875,11 L34.152344,11 C34.472656,11 34.769531,11.152344 34.957031,11.410156 C34.960938,11.417969 34.964844,11.421875 34.96875,11.421875 L36.921875,14.050781 C37.148438,14.363281 37.179688,14.746094 37.011719,15.082031 C36.789063,15.527344 35.539063,17.753906 34.394531,19.773438 C33.25,21.792969 32.175781,23.675781 32.175781,23.675781 C31.988281,23.988281 31.988281,24.375 32.167969,24.6875 C32.347656,25.003906 32.683594,25.195313 33.046875,25.191406 C33.40625,25.1875 33.738281,24.988281 33.910156,24.671875 C33.910156,24.671875 34.988281,22.785156 36.136719,20.761719 C37.28125,18.734375 38.464844,16.640625 38.796875,15.984375 C39.300781,14.980469 39.199219,13.777344 38.542969,12.875 C38.539063,12.875 38.539063,12.871094 38.535156,12.867188 L36.578125,10.238281 C36.015625,9.460938 35.109375,9 34.152344,9 L29.234375,9 L21.234375,5 L21.21875,5 L21.742188,2.390625 C21.984375,1.175781 21.019531,0 19.78125,0 L18.21875,0 Z M18.21875,2 L19.78125,2 L19.179688,5 L18.820313,5 L18.21875,2 Z M17.234375,7 L20.765625,7 L24.765625,9 L13.234375,9 L17.234375,7 Z M10.070313,11 L13.0625,11 L13.933594,24 L10.9375,24 L10.613281,19.15625 C10.621094,19.097656 10.621094,19.035156 10.617188,18.976563 L10.070313,11 Z M15.066406,11 L22.933594,11 L22.0625,24 L15.9375,24 L15.066406,11 Z M24.9375,11 L27.933594,11 L27.0625,24 L24.066406,24 L24.9375,11 Z M8.085938,11.347656 L8.453125,16.84375 L3.429688,12.859375 L8.085938,11.347656 Z M12,26 L26,26 L26,28 L12,28 L12,26 Z M27.113281,29.988281 L28.863281,44 L23.9375,44 L23.0625,30 L27.113281,30 C27.128906,30 27.117188,29.992188 27.113281,29.988281 Z M10.886719,29.988281 C10.882813,29.992188 10.871094,30 10.886719,30 L14.9375,30 L14.0625,44 L9.132813,44 L10.886719,29.988281 Z M16.9375,30 L21.0625,30 L21.9375,44 L16.0625,44 L16.9375,30 Z M12.5,31.5 C11.949219,31.5 11.5,31.949219 11.5,32.5 C11.5,33.050781 11.949219,33.5 12.5,33.5 C13.050781,33.5 13.5,33.050781 13.5,32.5 C13.5,31.949219 13.050781,31.5 12.5,31.5 Z" transform="translate(-1)"/>
</svg>
