<svg xmlns="http://www.w3.org/2000/svg" width="46" height="46" viewBox="0 0 46 46">
  <path fill="#FFFFFF" d="M5.84375,1 C5.546875,1.046875 5.285156,1.226563 5.132813,1.484375 C4.980469,1.746094 4.957031,2.0625 5.0625,2.34375 L7.59375,9.09375 C7.234375,9.253906 7.003906,9.609375 7,10 L7,14 C6.996094,14.335938 7.160156,14.652344 7.4375,14.84375 L0.5,35.0625 C-1.5,40.878906 2.851563,47 9,47 L31,47 C37.148438,47 41.5,40.878906 39.5,35.0625 L32.5625,14.8125 C32.832031,14.628906 32.996094,14.324219 33,14 L33,12.5 L37.0625,8.375 C38.617188,9.699219 44,14.824219 44,23 C43.996094,23.359375 44.183594,23.695313 44.496094,23.878906 C44.808594,24.058594 45.191406,24.058594 45.503906,23.878906 C45.816406,23.695313 46.003906,23.359375 46,23 C46,12.457031 37.59375,6.1875 37.59375,6.1875 C37.378906,6.027344 37.109375,5.960938 36.84375,6 C36.625,6.039063 36.429688,6.148438 36.28125,6.3125 L32.9375,9.6875 C32.804688,9.28125 32.425781,9.003906 32,9 L32,5 C31.996094,4.535156 31.671875,4.132813 31.21875,4.03125 C31.21875,4.03125 20.972656,1.753906 6.0625,1 C5.988281,0.992188 5.917969,0.992188 5.84375,1 Z M7.5,3.125 C20.515625,3.898438 28.980469,5.625 30,5.84375 L30,9 L9.6875,9 L7.5,3.125 Z M9,11 L31,11 L31,11.90625 C30.984375,12.011719 30.984375,12.113281 31,12.21875 L31,13 L9,13 L9,11 Z M9.5,15 L30.5,15 L33.9375,25 L6.0625,25 L9.5,15 Z M5.375,27 L34.625,27 L37.625,35.71875 C39.195313,40.292969 35.835938,45 31,45 L9,45 C4.164063,45 0.804688,40.292969 2.375,35.71875 L5.375,27 Z" transform="translate(0 -1)"/>
</svg>
