<svg xmlns="http://www.w3.org/2000/svg" width="25" height="25" viewBox="0 0 25 25">
  <g fill="none" fill-rule="evenodd">
    <path fill="#FFFFFF" fill-rule="nonzero" d="M17.5775,1 C18.5725,1 19.5565,1.484 20.5855,2.4795 C22.635,4.4625 21.2385,10.313 15.8935,15.861 C12.392,19.4955 8.161,21.844 5.1145,21.844 C4.0845,21.844 3.279,21.57 2.7205,21.03 C1.563,19.91 1,18.8365 1,17.749 C1,14.39 3.5965,12.668 6.1075,11.0025 C7.1535,10.309 8.141,9.6535 8.863,8.9045 C9.598,8.1415 10.1645,7.1435 10.7645,6.087 C12.184,3.586 13.652,1 17.5775,1 L17.5775,1 Z M17.5775,3.55271368e-15 C11.315,3.55271368e-15 10.4535,5.812 8.1425,8.2105 C5.8665,10.5735 0,12.3105 0,17.749 C0,19.008 0.5715,20.342 2.025,21.749 C2.7935,22.4925 3.8595,22.8445 5.114,22.8445 C8.3325,22.8445 12.787,20.5265 16.613,16.555 C21.9305,11.0355 24.02,4.412 21.2805,1.761 C19.984,0.506 18.748,3.77475828e-15 17.5775,3.55271368e-15 Z"/>
    <path stroke="#FFFFFF" stroke-linecap="round" stroke-linejoin="round" d="M20.6415,1.783 C25.704,6.793 24.8165,13.879 19.499,19.3985 C14.1815,24.918 6.522,25.582 1.7445,20.7935"/>
    <path fill="#FFFFFF" fill-rule="nonzero" d="M13.0765,7.9505 C12.663,9.092 12.309,10.447 11.282,11.5135 C10.29,12.543 8.58,13.2875 7.527,13.8105 C4.8175,15.156 3.8105,18.0315 4.009,19.9685 C4.6035,17.7835 6.343,15.9125 8.1235,15.0425 C9.2945,14.4695 11.271,13.8205 12.5335,12.51 C13.8775,11.1145 14.0995,9.4765 14.565,8.239 C15.197,6.5615 17.586,4.6235 19.469,3.5305 C17.784,3.481 14.3485,4.439 13.0765,7.9505 Z"/>
  </g>
</svg>
