<svg xmlns="http://www.w3.org/2000/svg" width="26" height="26" viewBox="0 0 26 26">
  <g fill="none" fill-rule="evenodd">
    <polygon fill="#D0D0D0" points="25 25 25 0 26 0 26 26 0 26 0 25"/>
    <path fill="#7F7E7F" d="M11.5,12.5 L14.5,12.5 L14.5,11 C14.5,10.1715729 13.8284271,9.5 13,9.5 C12.1715729,9.5 11.5,10.1715729 11.5,11 L11.5,12.5 Z M15.5,12.5 C16.0522847,12.5 16.5,12.9477153 16.5,13.5 L16.5,16.5 C16.5,17.0522847 16.0522847,17.5 15.5,17.5 L10.5,17.5 C9.94771525,17.5 9.5,17.0522847 9.5,16.5 L9.5,13.5 C9.5,12.9477153 9.94771525,12.5 10.5,12.5 L10.5,11 C10.5,9.61928813 11.6192881,8.5 13,8.5 C14.3807119,8.5 15.5,9.61928813 15.5,11 L15.5,12.5 Z"/>
  </g>
</svg>
