<svg xmlns="http://www.w3.org/2000/svg" width="40" height="40" viewBox="0 0 40 40">
  <path fill="#000000" d="M10.9083197,32.6857902 C5.52130103,32.1487972 2.5,30.968826 2.5,29.5 C2.5,28.5612679 3.87139656,27.9379058 5.83619706,27.2146335 C6.60175531,26.8666525 7.16951865,26.5672864 7.56883234,26.2889768 C7.76769675,26.1503744 7.90904905,26.0268147 7.98680802,25.9308783 C8.00969119,25.9026458 8,25.9251411 8,26 C8,25.2397039 5.41521174,19.2085313 0.594541064,8.92443388 C0.360132707,8.42436271 0.575494962,7.82894942 1.07556612,7.59454106 C1.09588772,7.58501531 1.11636677,7.57623232 1.13697264,7.56818099 C4.61685608,6.17873003 10.2226074,5.5 18,5.5 C25.7836262,5.5 31.3921286,6.17981847 34.8713907,7.57152331 C34.8890817,7.57868646 34.9066975,7.58633838 34.9241966,7.59454106 C35.4242677,7.82894942 35.63963,8.42436271 35.4052216,8.92443388 C35.0777296,9.62308357 34.7605565,10.3021053 34.4538117,10.96118 C37.8702905,10.3545509 40,11.4216793 40,14 C40,15.7643134 38.5858804,17.0605897 33.6,20.8 C29.7891461,23.6581405 28.166837,25.113095 28.0123088,25.8826072 C28.0062155,25.9173376 28.0023377,25.9475609 28.0006841,25.9732513 C28.0015242,25.9566554 28.0031394,25.9397058 28.0055389,25.9223936 C28.0075144,25.9243475 28.0099546,25.9271769 28.0129547,25.9308783 C28.0907136,26.0268147 28.2320659,26.1503744 28.4309303,26.2889768 C28.830244,26.5672864 29.3980074,26.8666525 30.1635656,27.2146335 C32.1283661,27.9379058 33.4997627,28.5612679 33.4997627,29.5 C33.4997627,30.9688026 30.4785581,32.1487596 25.0917009,32.6857644 L23.3904344,34.8123475 C23.2955483,34.9309551 23.1518919,35 23,35 L13,35 C12.8481081,35 12.7044517,34.9309551 12.6095656,34.8123475 L10.9083197,32.6857902 L10.9083197,32.6857902 Z M12.2842952,32.8049784 L13.2403124,34 L22.7596876,34 L23.7157198,32.8049597 C22.0073685,32.9319201 20.0964611,32.9999949 18,33 C15.903549,33 13.9926468,32.9319316 12.2842952,32.8049784 L12.2842952,32.8049784 Z M30.1921256,8.35889269 C27.0929932,7.78944838 23.0244431,7.5 18,7.5 C12.9755569,7.5 8.90700678,7.78944838 5.80787436,8.35889269 C8.91888812,8.78437409 12.9870428,9 18,9 C23.0129572,9 27.0811119,8.78437409 30.1921256,8.35889269 L30.1921256,8.35889269 Z M3.28962094,9.96683392 C7.86019446,19.7716939 10,24.8331164 10,26 C10,27.2581334 8.92428285,28.0078756 6.66380294,29.0353665 C6.42612671,29.1434011 5.87267124,29.3838845 5.42114411,29.5801577 C5.77573261,29.7121696 6.1984214,29.8434906 6.68654104,29.9690071 C9.19573103,30.6142274 12.9454412,31 18,31 C23.0544389,30.9999879 26.8040709,30.6142173 29.3132216,29.9690071 C29.8013413,29.8434906 30.2240301,29.7121696 30.5786186,29.5801577 C30.1270914,29.3838845 29.573636,29.1434011 29.3359597,29.0353665 C27.0754798,28.0078756 25.9997627,27.2581334 25.9997627,26 C25.9997627,25.9914922 25.9998764,25.9827774 26.000104,25.9738552 C26.0034441,25.5552536 26.0874052,25.1623209 26.2810294,24.7558726 C26.9968787,22.5182488 29.0917874,17.728981 32.7101173,9.96683392 C29.2515688,10.659283 24.3560099,11 18,11 C11.6438297,11 6.74818415,10.6592658 3.28962094,9.96683392 L3.28962094,9.96683392 Z M29.8416764,21.1565003 C30.5655842,20.5850521 31.4127756,19.9404183 32.4,19.2 C36.4141196,16.1894103 38,14.7356866 38,14 C38,12.7684482 36.6058802,12.2919335 33.385428,13.2673914 C31.9073752,16.4737984 30.7208364,19.1189301 29.8416764,21.1565003 L29.8416764,21.1565003 Z M11.4239714,27.7441858 L11.5760286,26.7558142 C13.7176108,27.0852883 15.8588624,27.25 18,27.25 C20.1411376,27.25 22.2823892,27.0852883 24.4239714,26.7558142 L24.5760286,27.7441858 C22.3842774,28.0813783 20.1921958,28.25 18,28.25 C15.8078042,28.25 13.6157226,28.0813783 11.4239714,27.7441858 Z"/>
</svg>
