<svg xmlns="http://www.w3.org/2000/svg" width="19" height="17" viewBox="0 0 19 17">
  <path fill="#FFFFFF" d="M24.7364959,16.8192102 C24.3696822,17.0120555 23.940966,16.700575 24.0110212,16.2921219 L24.9207695,10.9878822 L21.0670138,7.23139873 C20.7702553,6.94213067 20.9340103,6.43814454 21.3441205,6.37855204 L26.6698799,5.60467389 L29.051632,0.778717144 C29.2350388,0.407094285 29.7649612,0.407094285 29.948368,0.778717144 L32.3301201,5.60467389 L37.6558795,6.37855204 C38.0659897,6.43814454 38.2297447,6.94213067 37.9329862,7.23139873 L34.0792305,10.9878822 L34.9889788,16.2921219 C35.059034,16.700575 34.6303178,17.0120555 34.2635041,16.8192102 L29.5,14.3148879 L24.7364959,16.8192102 Z M29.2673294,13.3074343 C29.4129914,13.2308552 29.5870086,13.2308552 29.7326706,13.3074343 L33.8321091,15.4626367 L33.049186,10.8978448 C33.0213671,10.7356477 33.0751413,10.5701476 33.1929843,10.455279 L36.5094998,7.22247545 L31.9261882,6.55648128 C31.7633331,6.53281705 31.6225503,6.43053237 31.5497193,6.28296063 L29.5,2.12977573 L27.4502807,6.28296063 C27.3774497,6.43053237 27.2366669,6.53281705 27.0738118,6.55648128 L22.4905002,7.22247545 L25.8070157,10.455279 C25.9248587,10.5701476 25.9786329,10.7356477 25.950814,10.8978448 L25.1678909,15.4626367 L29.2673294,13.3074343 Z" transform="translate(-20)"/>
</svg>
