<svg height="17" viewBox="0 0 19 17" width="19" xmlns="http://www.w3.org/2000/svg"><path d="m24.7364959 16.8192102c-.3668137.1928453-.7955299-.1186352-.7254747-.5270883l.9097483-5.3042397-3.8537557-3.75648347c-.2967585-.28926806-.1330035-.79325419.2771067-.85284669l5.3257594-.77387815 2.3817521-4.82595675c.1834068-.37162285.7133292-.37162285.896736 0l2.3817521 4.82595675 5.3257594.77387815c.4101102.0595925.5738652.56357863.2771067.85284669l-3.8537557 3.75648347.9097483 5.3042397c.0700552.4084531-.358661.7199336-.7254747.5270883l-4.7635041-2.5043223zm4.5308335-3.5117759c.145662-.0765791.3196792-.0765791.4653412 0l4.0994385 2.1552024-.7829231-4.5647919c-.0278189-.1621971.0259553-.3276972.1437983-.4425658l3.3165155-3.23280355-4.5833116-.66599417c-.1628551-.02366423-.3036379-.12594891-.3764689-.27352065l-2.0497193-4.1531849-2.0497193 4.1531849c-.072831.14757174-.2136138.24985642-.3764689.27352065l-4.5833116.66599417 3.3165155 3.23280355c.117843.1148686.1716172.2803687.1437983.4425658l-.7829231 4.5647919z" fill="#fff" transform="translate(-20)"/></svg>