<svg xmlns="http://www.w3.org/2000/svg" width="22" height="27" viewBox="0 0 22 27">
  <path fill="#000000" d="M11,0 C4.925,0 0,4.925 0,11 C0,18.234 7.152,21.697 8.048,22.503 C8.963,23.326 9.719,25.171 10.024,26.217 C10.172,26.725 10.588,26.982 11,26.993 C11.413,26.981 11.828,26.724 11.976,26.217 C12.281,25.171 13.037,23.327 13.952,22.503 C14.848,21.697 22,18.234 22,11 C22,4.925 17.075,0 11,0 Z M11,17 C7.686,17 5,14.314 5,11 C5,7.686 7.686,5 11,5 C14.314,5 17,7.686 17,11 C17,14.314 14.314,17 11,17 Z"/>
</svg>
