<svg xmlns="http://www.w3.org/2000/svg" width="19" height="26" viewBox="0 0 19 26">
  <path fill="#444444" d="M1.4511719,0 C1.1881719,0 0.9621094,0.1863125 0.9121094,0.4453125 C0.6701094,1.7133125 0,5.362 0,7 C0,11 3,12 3,12 L3,24.5 C3,25.328 3.672,26 4.5,26 C5.328,26 6,25.328 6,24.5 L6,12 C6,12 9,11 9,7 C9,5.362 8.329891,1.7133125 8.087891,0.4453125 C8.037891,0.1863125 7.811828,0 7.548828,0 C7.245828,0 7,0.2458281 7,0.5488281 L7,6.3554688 C7,6.7114687 6.711469,7 6.355469,7 C6.026469,7 5.750844,6.7527812 5.714844,6.4257812 L5.054688,0.4863281 C5.023687,0.2093281 4.7897656,0 4.5097656,0 L4.5,0 L4.4902344,0 C4.2102344,0 3.9763125,0.2102812 3.9453125,0.4882812 L3.2851562,6.4277344 C3.2491563,6.7537344 2.9735312,7 2.6445312,7 C2.2885313,7 2,6.7114687 2,6.3554688 L2,0.5488281 C2,0.2458281 1.7541719,0 1.4511719,0 Z M18,0 C17.6577326,0.00034344625 17.3394165,0.175712048 17.15625,0.4648438 C17.15625,0.4648438 14,5.055 14,10 L14,11.980469 C14,12.637469 14.238875,13.272578 14.671875,13.767578 L16,15.056641 L16,24.5 C16,25.328 16.672,26 17.5,26 C18.328,26 19,25.328 19,24.5 L19,1 C19,0.44771525 18.5522847,0 18,0 Z"/>
</svg>
