<svg height="24" viewBox="0 0 24 24" width="24" xmlns="http://www.w3.org/2000/svg"><g fill="#5a265a"><path d="m22.028 7.972c-3.105-3.105-8.768-2.476-12.65 1.406s-4.51 9.545-1.406 12.65 8.768 2.476 12.65-1.406 4.511-9.545 1.406-12.65zm-10.251 11.268c-.013.548-.468.983-1.017.97-.266-.007-.505-.117-.679-.291-.185-.185-.298-.443-.291-.726.032-1.381 1.116-4.239 4.983-5.164 3.32-.795 3.446-3.17 3.45-3.27.02-.544.474-.976 1.018-.963.545.014.977.456.969 1-.017 1.38-1.08 4.235-4.975 5.166-3.361.805-3.457 3.253-3.458 3.278z"/><path d="m4.068 15.773c.305-2.742 1.614-5.419 3.683-7.579.726-2.159-.417-3.442-.475-3.505-.373-.4-.358-1.031.039-1.409.397-.377 1.02-.371 1.401.021.522.536 1.129 1.595 1.252 2.992 1.423-.981 2.986-1.671 4.584-2.023-1.448-2.579-3.84-4.27-6.552-4.27-4.418 0-8 4.477-8 10 0 3.784 1.682 7.077 4.163 8.775-.171-.954-.211-1.959-.095-3.002z"/></g></svg>