<svg height="79" viewBox="0 0 353 79" width="353" xmlns="http://www.w3.org/2000/svg" xmlns:xlink="http://www.w3.org/1999/xlink"><defs><linearGradient id="a" x1="50%" x2="50%" y1=".338%" y2="100%"><stop offset="0" stop-color="#cddaff"/><stop offset="1" stop-color="#38a5ff"/></linearGradient><path id="b" d="m338.25 648.644068 1.466511-.241029c4.383282-.720416 8.375596-2.953872 11.283119-6.312216l7.649244-8.835285c.898108-1.037363 1.905946-1.974387 3.005877-2.794674l3.51945-2.624675c3.140272-2.341897 6.927658-3.6559 10.843589-3.762095l43.656966-1.183918c.216819-.00588.433709-.00882.650608-.00882h24.037659c3.707539 0 7.364667-.858964 10.684533-2.509519l24.145657-12.004621c.537669-.267315 1.08518-.514359 1.641378-.740609l5.227728-2.126533c1.038593-.422479 2.135048-.685641 3.252255-.780579l.67118-.057035c.67586-.057433 1.353851-.086189 2.032148-.086189h25.482098 2.03272c2.292589 0 4.566253-.414917 6.711068-1.224692l12.387607-4.676941c.880748-.332526 1.784992-.599133 2.705261-.797616l3.835921-.827331c.83636-.180386 1.697607-.214837 2.545703-.101831l.400383.053349c.586131.0781 1.178533.098246 1.768616.060145l17.522208-1.131377c1.69251-.109283 3.319695-.694583 4.694021-1.688446l11.564569-8.363078c.880665-.636865 1.8694-1.108955 2.91833-1.393411l12.448453-3.375851c.640598-.173722 1.301404-.261733 1.96514-.261733h24.948278c1.350491 0 2.683668-.303924 3.900724-.889245l4.768665-2.293405c.914959-.440033 1.897777-.72208 2.90684-.834198l52.475493-5.83061v79h-351.639315c-.376925 0-.682484-.305558-.682484-.682484 0-.334205.242018-.619247.571799-.673448z"/><filter id="c" height="102.5%" width="98.4%" x="1.9%" y="-1.3%"><feGaussianBlur in="SourceAlpha" result="shadowBlurInner1" stdDeviation=".5"/><feOffset dy="1" in="shadowBlurInner1" result="shadowOffsetInner1"/><feComposite in="shadowOffsetInner1" in2="SourceAlpha" k2="-1" k3="1" operator="arithmetic" result="shadowInnerInner1"/><feColorMatrix in="shadowInnerInner1" values="0 0 0 0 1 0 0 0 0 1 0 0 0 0 1 0 0 0 0.158298733 0"/></filter></defs><g fill="none" fill-rule="evenodd" transform="translate(-337 -571)"><use fill="url(#a)" fill-opacity=".86" xlink:href="#b"/><use fill="#000" filter="url(#c)" xlink:href="#b"/></g></svg>