<svg height="24" viewBox="0 0 22 24" width="22" xmlns="http://www.w3.org/2000/svg"><g fill="none" fill-rule="evenodd" transform="translate(1)"><path d="m12 3h-4v-2c0-.552.448-1 1-1h2c.552 0 1 .448 1 1z" fill="#5a265a" fill-rule="nonzero"/><path d="m0 13c0 5.523 4.477 10 10 10s10-4.477 10-10-4.477-10-10-10-10 4.477-10 10zm18-10 1 1" stroke="#5a265a" stroke-linecap="round" stroke-width="2"/><path d="m0 13c0 5.486 4.514 10 10 10 2.35 0 4.627-.829 6.428-2.34l-6.428-7.66v-10c-5.486 0-10 4.514-10 10z" fill="#5a265a" fill-rule="nonzero"/></g></svg>