<svg height="24" viewBox="0 0 20 24" width="20" xmlns="http://www.w3.org/2000/svg"><g fill="none" fill-rule="evenodd"><path d="m14 5c0-1.94 0-4 0-4 0-.552-.448-1-1-1h-10c-.488 0-.999.319-.999 1 0 .982 1.999 1.873 1.999 4 0 2.966-4 4.972-4 8v9c0 1.105.895 2 2 2h14c1.105 0 2-.895 2-2v-9c0-2.98-4-5.011-4-8zm-12 8c0-.821.766-1.779 1.578-2.794 1.135-1.42 2.422-3.029 2.422-5.206 0-1.271-.443-2.254-.935-3h5.935c.552 0 1 .448 1 1v2c0 1.261.484 2.387.898 3.121.223.393-.074.879-.525.879h-4.19c-.632 0-1.233.296-1.604.808-1.18 1.627-2.544 3.032-2.544 4.555v3.619c0 .562-.456 1.017-1.017 1.017-.562.001-1.018-.455-1.018-1.016z" fill="#5a265a" fill-rule="nonzero"/><path d="m18.121 7.502c.55-.685.879-1.555.879-2.502 0-2.209-1.791-4-4-4h-3" stroke="#5a265a" stroke-linecap="round" stroke-linejoin="round" stroke-width="2"/></g></svg>