<svg xmlns="http://www.w3.org/2000/svg" width="106" height="106" viewBox="0 0 106 106">
  <g fill="none">
    <path fill="#221D31" d="M20.229139,2.22044605e-15 L85.770861,0 C92.0179504,-1.11022302e-15 94.8552338,0.547904695 97.7979416,2.12168208 C100.416655,3.52218507 102.477815,5.58334545 103.878318,8.20205836 C105.452095,11.1447662 106,13.9820496 106,20.229139 L106,85.770861 C106,92.0179504 105.452095,94.8552338 103.878318,97.7979416 C102.477815,100.416655 100.416655,102.477815 97.7979416,103.878318 C94.8552338,105.452095 92.0179504,106 85.770861,106 L20.229139,106 C13.9820496,106 11.1447662,105.452095 8.20205836,103.878318 C5.58334545,102.477815 3.52218507,100.416655 2.12168208,97.7979416 C0.547904695,94.8552338 3.44169138e-15,92.0179504 2.66453526e-15,85.770861 L0,20.229139 C-6.66133815e-16,13.9820496 0.547904695,11.1447662 2.12168208,8.20205836 C3.52218507,5.58334545 5.58334545,3.52218507 8.20205836,2.12168208 C11.1447662,0.547904695 13.9820496,3.33066907e-15 20.229139,2.22044605e-15 Z M20.229139,2 C14.283979,2 11.7586107,2.48767111 9.14525608,3.88530848 C6.87508011,5.09941187 5.09941187,6.87508011 3.88530848,9.14525608 C2.48767111,11.7586107 2,14.283979 2,20.229139 L2,85.770861 C2,91.716021 2.48767111,94.2413893 3.88530848,96.8547439 C5.09941187,99.1249199 6.87508011,100.900588 9.14525608,102.114692 C11.7586107,103.512329 14.283979,104 20.229139,104 L85.770861,104 C91.716021,104 94.2413893,103.512329 96.8547439,102.114692 C99.1249199,100.900588 100.900588,99.1249199 102.114692,96.8547439 C103.512329,94.2413893 104,91.716021 104,85.770861 L104,20.229139 C104,14.283979 103.512329,11.7586107 102.114692,9.14525608 C100.900588,6.87508011 99.1249199,5.09941187 96.8547439,3.88530848 C94.2413893,2.48767111 91.716021,2 85.770861,2 L20.229139,2 Z"/>
    <polygon fill="#594E7F" points="14.696 20.628 14.976 18.892 27.016 18.892 26.736 20.628"/>
    <path fill="#E4A34D" d="M37.432,29.364 C33.652,29.364 31.048,27.068 31.048,23.12 C31.048,17.604 35.36,14.384 39.952,14.384 C42.164,14.384 43.62,15.336 44.572,16.484 L43.172,17.968 C42.22,16.904 41.156,16.288 39.728,16.288 C36.2,16.288 33.456,19.032 33.456,22.812 C33.456,25.612 35.136,27.46 37.908,27.46 C39.588,27.46 41.1,26.648 42.416,25.64 L43.2,27.124 C41.492,28.524 39.448,29.364 37.432,29.364 Z M53.224,29.364 C50.564,29.364 48.38,28.328 46.924,27.124 L48.268,25.612 C49.612,26.788 51.152,27.544 53.588,27.544 C56.248,27.544 57.62,26.396 57.62,25.052 C57.62,24.044 56.584,23.232 53.616,22.448 C51.096,21.776 49.052,20.544 49.052,18.724 C49.052,16.4 51.32,14.384 55.436,14.384 C57.48,14.384 59.412,15.224 60.616,16.176 L59.244,17.688 C58.18,16.792 56.836,16.176 55.156,16.176 C52.272,16.176 51.432,17.352 51.432,18.444 C51.432,19.536 52.944,20.236 55.184,20.852 C58.376,21.748 60,22.812 60,24.66 C60,27.18 57.452,29.364 53.224,29.364 Z M70.024,29.364 C67.364,29.364 65.18,28.328 63.724,27.124 L65.068,25.612 C66.412,26.788 67.952,27.544 70.388,27.544 C73.048,27.544 74.42,26.396 74.42,25.052 C74.42,24.044 73.384,23.232 70.416,22.448 C67.896,21.776 65.852,20.544 65.852,18.724 C65.852,16.4 68.12,14.384 72.236,14.384 C74.28,14.384 76.212,15.224 77.416,16.176 L76.044,17.688 C74.98,16.792 73.636,16.176 71.956,16.176 C69.072,16.176 68.232,17.352 68.232,18.444 C68.232,19.536 69.744,20.236 71.984,20.852 C75.176,21.748 76.8,22.812 76.8,24.66 C76.8,27.18 74.252,29.364 70.024,29.364 Z"/>
    <polygon fill="#594E7F" points="81.896 20.628 82.176 18.892 94.216 18.892 93.936 20.628"/>
    <path fill="#ACC146" d="M17.832,65.356 C16.068,65.356 14.22,64.824 12.792,62.724 L14.136,61.324 C15.256,63.116 16.768,63.508 18.14,63.508 C20.744,63.508 22.396,62.332 22.956,59 L23.348,56.732 C22.088,57.908 20.268,58.86 18.588,58.86 C15.564,58.86 13.688,56.704 13.688,53.092 C13.688,47.744 17.496,44.384 21.22,44.384 C22.816,44.384 24.076,45.112 25.112,46.344 L25.112,46.316 L25.616,44.72 L27.464,44.72 L25.196,59 C24.552,63.144 21.864,65.356 17.832,65.356 Z M19.4,56.956 C20.716,56.956 22.116,56.2 23.572,54.772 L24.636,48.024 C23.6,46.792 22.508,46.316 21.304,46.316 C18.7,46.316 16.068,48.976 16.068,52.784 C16.068,55.332 17.272,56.956 19.4,56.956 Z M31.888,59 L34.156,44.72 L36.06,44.72 L35.696,48.136 L35.78,48.136 C37.572,45.84 39.952,44.384 42.472,44.384 C43.48,44.384 44.292,44.524 45.048,44.972 L44.208,46.96 C43.312,46.596 42.836,46.456 41.772,46.456 C39.728,46.456 37.628,47.576 35.528,50.572 L34.184,59 L31.888,59 Z M56.332,41.528 C55.352,41.528 54.652,40.856 54.652,39.876 C54.652,38.56 55.744,37.608 56.948,37.608 C57.928,37.608 58.628,38.308 58.628,39.316 C58.628,40.604 57.536,41.528 56.332,41.528 Z M47.4,59 L47.708,57.096 L53,57.096 L54.652,46.596 L49.36,46.596 L49.668,44.72 L57.256,44.72 L55.296,57.096 L60.588,57.096 L60.28,59 L47.4,59 Z M68.932,59.364 C65.88,59.364 64.032,57.208 64.032,53.484 C64.032,47.856 67.952,44.384 71.592,44.384 C73.244,44.384 74.336,45.084 75.4,46.26 L75.736,43.572 L76.52,38.644 L78.816,38.644 L75.596,59 L73.692,59 L73.804,57.096 L73.72,57.096 C72.404,58.3 70.612,59.364 68.932,59.364 Z M69.716,57.432 C71.06,57.432 72.46,56.676 73.888,55.22 L75.036,48.024 C74,46.792 72.908,46.316 71.732,46.316 C69.044,46.316 66.468,49.088 66.468,53.148 C66.468,55.78 67.616,57.432 69.716,57.432 Z"/>
    <polygon fill="#594E7F" points="81.896 50.628 82.176 48.892 94.216 48.892 93.936 50.628"/>
    <path fill="#33ACD4" d="M18.532,89.364 C15.48,89.364 13.632,87.208 13.632,83.484 C13.632,77.856 17.552,74.384 21.192,74.384 C22.844,74.384 23.936,75.084 25,76.26 L25.56,74.72 L27.464,74.72 L25.196,89 L23.292,89 L23.404,87.096 L23.32,87.096 C22.004,88.3 20.212,89.364 18.532,89.364 Z M19.316,87.432 C20.66,87.432 22.06,86.676 23.488,85.22 L24.636,78.024 C23.6,76.792 22.508,76.316 21.332,76.316 C18.644,76.316 16.068,79.088 16.068,83.148 C16.068,85.78 17.216,87.432 19.316,87.432 Z"/>
    <polygon fill="#594E7F" points="31.496 80.628 31.776 78.892 43.816 78.892 43.536 80.628"/>
    <path fill="#33ACD4" d="M52.132,89.364 C49.08,89.364 47.232,87.208 47.232,83.484 C47.232,77.856 51.152,74.384 54.792,74.384 C56.444,74.384 57.536,75.084 58.6,76.26 L58.936,73.572 L59.72,68.644 L62.016,68.644 L58.796,89 L56.892,89 L57.004,87.096 L56.92,87.096 C55.604,88.3 53.812,89.364 52.132,89.364 Z M52.916,87.432 C54.26,87.432 55.66,86.676 57.088,85.22 L58.236,78.024 C57.2,76.792 56.108,76.316 54.932,76.316 C52.244,76.316 49.668,79.088 49.668,83.148 C49.668,85.78 50.816,87.432 52.916,87.432 Z M68.932,89.364 C65.88,89.364 64.032,87.208 64.032,83.484 C64.032,77.856 67.952,74.384 71.592,74.384 C73.244,74.384 74.336,75.084 75.4,76.26 L75.96,74.72 L77.864,74.72 L75.596,89 L73.692,89 L73.804,87.096 L73.72,87.096 C72.404,88.3 70.612,89.364 68.932,89.364 Z M69.716,87.432 C71.06,87.432 72.46,86.676 73.888,85.22 L75.036,78.024 C74,76.792 72.908,76.316 71.732,76.316 C69.044,76.316 66.468,79.088 66.468,83.148 C66.468,85.78 67.616,87.432 69.716,87.432 Z M80.916,95.076 C80.272,95.076 79.6,94.964 79.152,94.796 L79.936,92.976 C80.272,93.088 80.692,93.172 81.112,93.172 C83.016,93.172 84.332,91.94 85.368,90.064 L85.928,89.056 L81.84,74.72 L84.136,74.72 L86.208,82.756 C86.544,84.016 86.908,85.5 87.244,86.872 L87.356,86.872 C88.056,85.528 88.784,84.044 89.456,82.756 L93.684,74.72 L95.896,74.72 L87.468,90.176 C85.984,92.92 83.996,95.076 80.916,95.076 Z"/>
  </g>
</svg>
