<svg height="120" viewBox="0 0 60 120" width="60" xmlns="http://www.w3.org/2000/svg"><g fill="none" fill-rule="evenodd"><path d="m1 1h58v118h-58z" stroke="#000" stroke-width="2"/><path d="m4 5h52v3h-52zm0 5h52v1h-52zm0 10h52v2h-52zm0 4h52v1h-52zm0 59h52v1h-52zm0-70h52v2h-52zm0 59h52v2h-52zm0-55h52v1h-52zm0 60h52v3h-52zm0-27v-3h52v3zm0-8v-1h52v1zm0 58v-1h52v1zm0-68v-2h52v2zm0 60v-2h52v2zm0-64v-1h52v1zm0 60v-1h52v1zm0-49v-2h52v2zm0 58v-2h52v2zm0-62v-1h52v1zm0 34v-2h52v2zm0-5v-1h52v1zm0-10v-2h52v2zm0 54v-2h52v2zm0-63v-1h52v1zm0 59v-1h52v1zm0-43v-2h52v2zm0-4v-1h52v1zm0 55v-1h52v1zm0 3v-1h52v1z" fill="#000"/></g></svg>