<svg height="26" viewBox="0 0 26 26" width="26" xmlns="http://www.w3.org/2000/svg"><path d="m18.8117647 25.4901961c-.0361961 0-.072902-.0040785-.109098-.0117255-.1667059-.0361961-.3048628-.1544706-.3665491-.3135294l-3.6471372-9.4262745-5.00270589 4.8686274v2.8436863c0 .1463137-.06270588.2854902-.17231373.3823529l-1.73333333 1.5294118c-.13356863.1177647-.31913725.158549-.48890196.104-.17027451-.0530196-.30027451-.1906667-.34309804-.364l-1.20058823-4.8502745-4.85078432-1.2005882c-.18556862-.0458824-.32984313-.1921961-.37368627-.3782746-.04384314-.1860784.02039215-.3808235.16619608-.5047058l2.03921568-1.7333334c.09176471-.0790196.20901961-.1218431.32984314-.1218431h2.33541176l4.86658821-4.9558039-9.42729409-3.69505885c-.15905882-.06219608-.27631372-.20035295-.3125098-.36705883s.0137647-.34054902.13254902-.46290196l1.73333333-1.78431372c.11266667-.1162353.27529412-.17129412.43384314-.14988236l12.2403922 1.64870588 3.4411764-3.44117647c.6739608-.71627451 3.9356863-3.00631372 5.8540785-3.00631372.4725882 0 .8523921.13407843 1.1292156.39866667 1.5656079 1.63545098-1.8872941 6.29505882-2.5918431 6.99909803l-3.4411765 3.44117643 1.6487059 12.2398824c.0214118.1600784-.0341568.3211765-.1498823.4338431l-1.7843138 1.7333334c-.0963529.0932941-.2238039.1442745-.3553333.1442745z" fill="#2b4361"/></svg>