<svg height="12" viewBox="0 0 11 12" width="11" xmlns="http://www.w3.org/2000/svg"><path d="m11 1.44v11.06c0 .275-.225.5-.5.5h-2c-.275 0-.5-.225-.5-.5v-3.966s-1-.453-1-1.5c0-.489 0-3.594 0-3.594 0-.412.281-.938.624-1.166l2.752-1.168c.343-.228.624-.078.624.334zm-7 .06v3.5h-1v-3.5s.026-.5-.5-.5-.5.5-.5.5v3.5h-1v-3.5s-.053-.5-.5-.5c-.447 0-.5.5-.5.5v3.5 1c0 1 1 2.034 1 2.034v4.466c0 .275.225.5.5.5h2c.275 0 .5-.225.5-.5v-4.466s1-1.034 1-2.034 0-1 0-1v-3.5s0-.5-.5-.5-.5.5-.5.5z" fill="#fff" transform="translate(0 -1)"/></svg>