<?xml version="1.0" standalone="no"?>
<!DOCTYPE svg PUBLIC "-//W3C//DTD SVG 20010904//EN"
 "http://www.w3.org/TR/2001/REC-SVG-20010904/DTD/svg10.dtd">
<svg version="1.0" xmlns="http://www.w3.org/2000/svg"
 width="700.000000pt" height="700.000000pt" viewBox="0 0 700.000000 700.000000"
 preserveAspectRatio="xMidYMid meet">
<metadata>
Created by potrace 1.11, written by Peter Selinger 2001-2013
</metadata>
<g transform="translate(0.000000,700.000000) scale(0.100000,-0.100000)"
fill="#000000" stroke="none">
<path d="M1717 6433 c-1 -1 -53 -3 -116 -4 -145 -3 -276 -22 -374 -54 -169
-55 -335 -168 -438 -297 -89 -112 -176 -300 -194 -418 -2 -19 -7 -46 -10 -60
-16 -73 -19 -425 -19 -2110 0 -1790 3 -1988 24 -2115 36 -218 139 -413 295
-557 112 -104 333 -209 475 -225 19 -2 42 -6 50 -9 8 -3 73 -8 145 -11 126 -7
3669 -9 3851 -3 300 9 505 79 689 234 33 28 68 61 78 74 10 12 24 28 31 35 58
58 156 245 182 349 47 184 47 185 47 2168 0 1026 -1 1910 -3 1965 -8 307 -77
514 -234 700 -28 33 -59 66 -69 73 -10 8 -28 23 -40 35 -61 61 -240 155 -346
183 -87 23 -235 41 -356 44 -120 3 -3666 6 -3668 3z m3770 -277 c314 -25 542
-192 627 -458 33 -104 35 -118 43 -258 9 -152 9 -3732 0 -3880 -9 -147 -14
-180 -42 -263 -74 -219 -255 -379 -488 -432 -37 -9 -111 -18 -165 -22 -130 -9
-3780 -9 -3907 0 -123 9 -167 15 -225 32 -229 67 -406 249 -459 470 -19 81
-21 96 -28 195 -9 119 -9 3743 -1 3900 11 191 43 304 121 420 123 184 313 281
582 297 50 2 91 6 92 7 6 5 3781 -2 3850 -8z"/>
<path d="M1463 4872 c-13 -2 -23 -4 -23 -5 -15 -55 -44 -260 -38 -263 6 -4
985 -8 1179 -4 28 0 26 -5 66 243 2 15 1 27 -4 28 -28 2 -1162 3 -1180 1z"/>
<path d="M2925 4850 c-4 -14 -9 -38 -11 -55 -2 -16 -10 -66 -18 -110 -8 -44
-13 -81 -11 -83 2 -2 812 -4 1126 -2 l86 0 22 131 c12 73 19 134 16 137 -2 3
-275 5 -604 6 l-600 1 -6 -25z"/>
<path d="M4435 4872 c-19 -3 -23 -18 -42 -135 -12 -72 -20 -133 -18 -135 4 -4
1206 -5 1210 0 3 3 5 20 21 131 3 23 10 62 14 87 5 25 7 47 4 49 -4 5 -1158 8
-1189 3z"/>
<path d="M1435 3610 c-2 -14 -12 -68 -20 -120 -9 -52 -17 -103 -19 -112 -4
-17 30 -18 604 -18 l608 0 17 113 c9 61 19 123 22 137 l4 25 -605 0 -606 0 -5
-25z"/>
<path d="M2925 3620 c-3 -8 -7 -29 -9 -45 -7 -51 -26 -169 -31 -193 l-5 -22
607 2 608 3 12 59 c6 33 14 82 17 109 4 28 9 61 12 74 5 18 2 23 -12 24 -11 1
-283 2 -607 3 -516 1 -588 -1 -592 -14z"/>
<path d="M4421 3630 c-4 -3 -15 -57 -25 -120 -10 -63 -20 -123 -23 -132 -4
-17 29 -18 601 -18 333 0 607 3 609 8 3 4 8 27 11 52 3 25 12 81 20 125 8 44
12 82 10 85 -7 6 -1194 6 -1203 0z"/>
<path d="M1390 2391 c0 -4 -9 -60 -20 -126 -11 -66 -20 -125 -20 -132 0 -8
153 -11 604 -11 l604 1 11 61 c6 33 13 72 16 86 3 14 7 48 10 75 l6 51 -606 0
c-333 0 -605 -2 -605 -5z"/>
<path d="M2870 2330 c-7 -36 -14 -81 -17 -100 -3 -19 -8 -51 -13 -71 l-7 -37
607 0 608 0 6 32 c3 17 8 45 10 61 20 123 26 161 26 171 0 7 -188 10 -604 10
l-605 0 -11 -66z"/>
<path d="M4365 2366 c-3 -17 -14 -79 -24 -137 l-18 -107 608 0 607 0 6 43 c8
50 11 69 26 154 6 34 8 66 5 70 -4 3 -276 6 -606 7 l-599 0 -5 -30z"/>
</g>
</svg>
