<svg xmlns="http://www.w3.org/2000/svg" width="194" height="194" viewBox="0 0 194 194">
  <g fill="none" fill-rule="evenodd">
    <rect width="194" height="194" fill="#C8E7CE"/>
    <polygon fill="#FF0008" stroke="#000000" stroke-width="4" points="49 159 49 151 26 164 49 176 49 169 135.5 169 141.5 175 169 175 158.5 165 169 153 141.5 153 135.5 159"/>
    <g fill="#000000" fill-rule="nonzero" transform="translate(24.87 24.677)">
      <path d="M22.1299326,29.9943125 C22.1299326,33.7670361 19.9367529,35.9545341 17.0219829,35.9545341 C14.0958494,35.9545341 11.8856242,33.7670361 11.8856242,29.9943125 C11.8856242,26.2045434 14.0958494,24 17.0219829,24 C19.9367529,24 22.1299326,26.2045434 22.1299326,29.9943125 Z M19.8856166,29.9943125 C19.8856166,27.2499969 18.6753905,26.0284072 17.0219829,26.0284072 C15.3742572,26.0284072 14.1299403,27.2499969 14.1299403,29.9943125 C14.1299403,32.738628 15.3742572,33.9261269 17.0219829,33.9261269 C18.6753905,33.9261269 19.8856166,32.738628 19.8856166,29.9943125 Z M23.8458513,39.0681674 L23.8458513,27.0681789 L26.0219856,27.0681789 L26.0219856,28.1477233 L26.1526673,28.1477233 C26.4481216,27.551133 27.1242573,26.9545426 28.2890289,26.9545426 C30.1810725,26.9545426 31.7662983,28.4886321 31.7662983,31.4374929 C31.7662983,34.3522629 30.2435725,35.9488522 28.2947107,35.9488522 C27.1356209,35.9488522 26.4481216,35.3636255 26.1526673,34.7613534 L26.0503947,34.7613534 L26.0503947,39.0681674 L23.8458513,39.0681674 Z M29.6697094,31.4318111 C29.6697094,29.8068126 29.0106191,28.7443137 27.709484,28.7443137 C26.3685762,28.7443137 25.8458494,29.8920398 25.8458494,31.4318111 C25.8458494,32.9602187 26.3572125,34.1533994 27.709484,34.1533994 C29.0049373,34.1533994 29.6697094,33.0624914 29.6697094,31.4318111 Z M37.2549385,35.9602159 C34.6356228,35.9602159 33.0276698,34.2727175 33.0276698,31.5454473 C33.0276698,28.8806772 34.5503956,26.9545426 37.1640295,26.9545426 C39.3799365,26.9545426 41.0674349,28.3465868 41.0674349,31.1477205 L41.0674349,32.0738559 L35.1583496,32.0738559 C35.3003949,33.3693092 35.9822124,34.1533994 37.2378931,34.1533994 C38.2890284,34.1533994 38.7663007,33.5908999 38.999255,32.9431733 L40.9765258,33.4772637 C40.6583443,34.6761262 39.5219818,35.9602159 37.2549385,35.9602159 Z M37.146984,28.7443137 C36.1356214,28.7443137 35.4538038,29.4090858 35.2208495,30.5568119 L38.9765278,30.5568119 C38.9765278,29.5284038 38.3060739,28.7443137 37.146984,28.7443137 Z M44.8628947,30.9943115 L44.8628947,35.7954433 L42.6583513,35.7954433 L42.6583513,27.0681789 L44.7265312,27.0681789 L44.7265312,28.1761324 L44.8174402,28.1761324 C45.2890306,27.460224 46.1356207,26.9545426 47.2378924,26.9545426 C48.7663,26.9545426 50.1356169,27.8863599 50.1356169,30.312494 L50.1356169,35.7954433 L47.9253917,35.7954433 L47.9253917,30.403403 C47.9253917,29.3636312 47.3003923,28.7727227 46.4651659,28.7727227 C45.4822123,28.7727227 44.8628947,29.6363583 44.8628947,30.9943115 Z" transform="rotate(-45 31.01 31.534)"/>
      <path d="M36.9597269,76.9348892 L35.1188196,76.9348892 C33.8745026,75.2530726 32.982458,72.7076205 32.982458,70.0258049 C32.982458,67.3439892 33.8745026,64.7985371 35.1756377,63.1167205 L36.982458,63.1167205 C35.6188191,65.4349002 35.0506378,67.50308 35.0506378,70.0258049 C35.0506378,72.4576207 35.6188191,74.6167096 36.9597269,76.9348892 Z M42.1415457,74.9178457 C39.6415481,74.9178457 38.0790496,73.0598929 38.0790496,70.4064863 C38.0790496,67.7360343 39.6415481,65.9121724 42.1415457,65.9121724 C44.6472251,65.9121724 46.2040418,67.7360343 46.2040418,70.4064863 C46.2040418,73.0598929 44.6472251,74.9178457 42.1415457,74.9178457 Z M42.1415457,73.1110292 C43.5222262,73.1110292 44.0904075,71.9519394 44.0904075,70.4064863 C44.0904075,68.8553514 43.5222262,67.7019434 42.1415457,67.7019434 C40.766547,67.7019434 40.1926839,68.8553514 40.1926839,70.4064863 C40.1926839,71.9519394 40.766547,73.1110292 42.1415457,73.1110292 Z M53.2722259,66.1905813 L52.5847265,68.1053522 C52.4654085,68.0371704 52.1301815,67.9235341 51.7722273,67.9235341 C50.7267738,67.9235341 50.0051835,68.838306 49.9938199,69.8042142 L49.9938199,74.7530731 L47.7892766,74.7530731 L47.7892766,66.0258087 L49.9483654,66.0258087 L49.9483654,67.2644439 L50.0733653,67.2644439 C50.323365,66.3780811 51.2154097,65.9064906 52.0676816,65.9064906 C52.5222266,65.9064906 52.9994989,66.0314905 53.2722259,66.1905813 Z M69.9767659,66.0258087 L67.6699499,74.7530731 L65.8119971,74.7530731 L64.2438168,69.3155783 L64.1074533,69.3155783 L62.5563184,74.7530731 L60.6926838,74.7530731 L58.3915497,66.0258087 L60.5449567,66.0258087 L61.7324556,71.7189851 L61.84041,71.7189851 L63.3460904,66.0258087 L65.0108615,66.0258087 L66.5108601,71.6792124 L66.6188145,71.6792124 L67.8233589,66.0258087 L69.9767659,66.0258087 Z M73.6756381,69.9121686 L73.6756381,74.7530731 L71.4710947,74.7530731 L71.4710947,63.1167205 L73.6131381,63.1167205 L73.6131381,67.0542168 L73.7040472,67.0542168 C74.1870012,66.3951265 74.9938186,65.9121724 76.0676813,65.9121724 C77.6585888,65.9121724 78.7779059,67.0030805 78.7779059,69.2701238 L78.7779059,74.7530731 L76.5676808,74.7530731 L76.5676808,69.2530783 C76.5676808,68.321261 76.1585903,67.7303525 75.2949547,67.7303525 C74.2892739,67.7303525 73.6756381,68.5712608 73.6756381,69.9121686 Z M85.5335901,74.7530731 L85.5335901,73.7701195 L85.4313175,73.7701195 C85.1301814,74.3269371 84.4256366,74.9292093 83.1983651,74.9292093 C81.6472302,74.9292093 80.3574587,73.9803466 80.3574587,72.2928482 C80.3574587,70.6053498 81.6585938,69.7587597 83.868819,69.5542144 C84.6415455,69.4689872 85.4369993,69.4405782 85.4369993,68.9803513 L85.4369993,68.8496696 C85.4369993,68.0712613 84.9426816,67.6337617 84.1756369,67.6337617 C83.3631376,67.6337617 82.7665473,68.0996703 82.6074565,68.6905789 L80.5335949,68.3894428 C80.9370036,66.7814898 82.3745022,65.9121724 84.232455,65.9121724 C85.9654079,65.9121724 87.6585881,66.6792172 87.6585881,68.8951241 L87.6585881,74.7530731 L85.5335901,74.7530731 Z M85.4369993,71.843985 L85.4369993,70.690577 C85.2722267,70.872395 84.4767729,70.9860312 84.079046,71.0371675 C83.0335925,71.1564856 82.5051839,71.508758 82.5051839,72.2644391 C82.5051839,72.8894385 82.9995016,73.2587563 83.7267736,73.2587563 C84.6983636,73.2587563 85.4369993,72.6053479 85.4369993,71.843985 Z M93.806318,66.0258087 L93.806318,67.6621708 L92.2835921,67.6621708 L92.2835921,72.0826211 C92.2835921,72.8951203 92.681319,73.0144384 93.1642731,73.0144384 C93.3688184,73.0144384 93.5790455,72.9860293 93.7267726,72.9462566 L94.0733632,74.6451186 C93.9085906,74.7133004 93.3574548,74.8667093 92.5506373,74.8667093 C91.226775,74.8667093 90.0790488,73.9519375 90.0790488,72.417848 L90.0790488,67.6621708 L88.9938226,67.6621741 L88.9938226,66.0258087 L90.0790488,66.0258087 L90.0790488,64.1621741 L92.2835921,64.1621741 L92.2835921,66.0258087 L93.806318,66.0258087 Z M99.3404092,74.9178457 C96.7210935,74.9178457 95.1131405,73.2303473 95.1131405,70.5030771 C95.1131405,67.838307 96.6358663,65.9121724 99.2495002,65.9121724 C101.465407,65.9121724 103.152906,67.3042166 103.152906,70.1053502 L103.152906,71.0314857 L97.2438203,71.0314857 C97.3858656,72.326939 98.0676831,73.1110292 99.3233638,73.1110292 C100.374499,73.1110292 100.851771,72.5485297 101.084726,71.9008031 L103.061997,72.4348935 C102.743815,73.633756 101.607452,74.9178457 99.3404092,74.9178457 Z M99.2324547,67.7019434 C98.2210921,67.7019434 97.5392745,68.3667155 97.3063202,69.5144417 L101.061998,69.5144417 C101.061998,68.4860336 100.391545,67.7019434 99.2324547,67.7019434 Z M112.69836,66.0258087 L109.488136,74.7530731 L107.380183,74.7530731 L104.187004,66.0258087 L106.476775,66.0258087 L108.402909,71.9462576 L108.493818,71.9462576 L110.408589,66.0258087 L112.69836,66.0258087 Z M117.948364,74.9178457 C115.329048,74.9178457 113.721095,73.2303473 113.721095,70.5030771 C113.721095,67.838307 115.243821,65.9121724 117.857455,65.9121724 C120.073362,65.9121724 121.76086,67.3042166 121.76086,70.1053502 L121.76086,71.0314857 L115.851775,71.0314857 C115.99382,72.326939 116.675638,73.1110292 117.931318,73.1110292 C118.982454,73.1110292 119.459726,72.5485297 119.69268,71.9008031 L121.669951,72.4348935 C121.35177,73.633756 120.215407,74.9178457 117.948364,74.9178457 Z M117.840409,67.7019434 C116.829047,67.7019434 116.147229,68.3667155 115.914275,69.5144417 L119.669953,69.5144417 C119.669953,68.4860336 118.999499,67.7019434 117.840409,67.7019434 Z M128.834726,66.1905813 L128.147227,68.1053522 C128.027908,68.0371704 127.692682,67.9235341 127.334727,67.9235341 C126.289274,67.9235341 125.567684,68.838306 125.55632,69.8042142 L125.55632,74.7530731 L123.351777,74.7530731 L123.351777,66.0258087 L125.510865,66.0258087 L125.510865,67.2644439 L125.635865,67.2644439 C125.885865,66.3780811 126.77791,65.9064906 127.630182,65.9064906 C128.084727,65.9064906 128.561999,66.0314905 128.834726,66.1905813 Z M132.346092,72.9405748 L132.346092,74.4121643 C132.340411,75.5996632 131.749502,76.8098893 130.942685,77.6167067 L129.715413,77.1110254 C130.067686,76.3439807 130.48814,75.6394359 130.48814,74.5258006 L130.48814,72.9405748 L132.346092,72.9405748 Z M38.6756391,84.2985366 C37.9597307,84.2985366 37.4085948,83.7701281 37.4085948,83.1280832 C37.4085948,82.5030838 37.9597307,81.9576298 38.6756391,81.9576298 C39.3915475,81.9576298 39.9199561,82.5030838 39.9199561,83.1280832 C39.9199561,83.7701281 39.3915475,84.2985366 38.6756391,84.2985366 Z M39.7722289,85.0258087 L39.7722289,93.7530731 L37.5676856,93.7530731 L37.5676856,85.0258087 L39.7722289,85.0258087 Z M45.9767725,85.0258087 L45.9767725,86.6621708 L44.4540467,86.6621708 L44.4540467,91.0826211 C44.4540467,91.8951203 44.8517736,92.0144384 45.3347277,92.0144384 C45.5392729,92.0144384 45.7495,91.9860293 45.8972271,91.9462566 L46.2438177,93.6451186 C46.0790451,93.7133004 45.5279093,93.8667093 44.7210919,93.8667093 C43.3972295,93.8667093 42.2495033,92.9519375 42.2495033,91.417848 L42.2495033,86.6621708 L41.1642771,86.6621741 L41.1642771,85.0258087 L42.2495033,85.0258087 L42.2495033,83.1621741 L44.4540467,83.1621741 L44.4540467,85.0258087 L45.9767725,85.0258087 Z M49.5847292,82.1167205 L49.5847292,83.3099012 C49.5847292,84.3212639 48.954048,85.5258082 48.1529124,86.2019439 L47.164277,85.5826263 C47.5506402,84.9633087 47.8972308,84.2644458 47.8972308,83.315583 L47.8972308,82.1167205 L49.5847292,82.1167205 Z M58.2835881,87.3951246 L56.2779082,87.5996699 C56.1642719,87.0258068 55.6244997,86.5598981 54.7779096,86.5598981 C54.0335922,86.5598981 53.3745019,86.9235341 53.3745019,87.4917154 C53.3745019,87.9860331 53.8517742,88.264442 54.4995008,88.4064873 L56.1188174,88.7530779 C57.4597253,89.0485321 58.4597243,89.7076224 58.4597243,91.1110302 C58.4597243,92.9178466 56.7892714,93.9178457 54.6188189,93.9178457 C52.431321,93.9178457 51.215413,92.9292102 50.8745043,91.2814845 L52.9824568,91.0428484 C53.1926839,91.8383022 53.857456,92.2814836 54.7154097,92.2814836 C55.5676816,92.2814836 56.1983628,91.8667113 56.1983628,91.3610299 C56.1983628,90.7587578 55.6926815,90.5883034 55.1358638,90.4633035 L53.6017744,90.1167129 C52.1983666,89.781486 51.187004,89.0258049 51.187004,87.6337607 C51.187004,85.9405805 52.6699571,84.9121724 54.8688186,84.9121724 C56.9142712,84.9121724 57.9994975,85.8155807 58.2835881,87.3951246 Z M69.255181,93.7530731 L69.255181,92.7701195 L69.1529084,92.7701195 C68.8517723,93.3269371 68.1472275,93.9292093 66.919956,93.9292093 C65.3688211,93.9292093 64.0790496,92.9803466 64.0790496,91.2928482 C64.0790496,89.6053498 65.3801847,88.7587597 67.5904099,88.5542144 C68.3631364,88.4689872 69.1585902,88.4405782 69.1585902,87.9803513 L69.1585902,87.8496696 C69.1585902,87.0712613 68.6642725,86.6337617 67.8972278,86.6337617 C67.0847285,86.6337617 66.4881382,87.0996703 66.3290474,87.6905789 L64.2551858,87.3894428 C64.6585945,85.7814898 66.0960931,84.9121724 67.9540459,84.9121724 C69.6869988,84.9121724 71.380179,85.6792172 71.380179,87.8951241 L71.380179,93.7530731 L69.255181,93.7530731 Z M69.1585902,90.843985 L69.1585902,89.690577 C68.9938176,89.872395 68.1983638,89.9860312 67.8006369,90.0371675 C66.7551834,90.1564856 66.2267748,90.508758 66.2267748,91.2644391 C66.2267748,91.8894385 66.7210925,92.2587563 67.4483646,92.2587563 C68.4199545,92.2587563 69.1585902,91.6053479 69.1585902,90.843985 Z M75.4881381,82.1167205 L75.4881381,93.7530731 L73.2835947,93.7530731 L73.2835947,82.1167205 L75.4881381,82.1167205 Z M79.5904108,82.1167205 L79.5904108,93.7530731 L77.3858675,93.7530731 L77.3858675,82.1167205 L79.5904108,82.1167205 Z M91.3233623,85.0542177 L93.4994966,85.0542177 L93.4994966,93.514437 C93.4994966,95.8723892 91.7665437,97.0712517 89.4029096,97.0712517 C87.7438202,97.0712517 86.4881396,96.395116 85.9938219,95.7701166 L87.0733663,94.3269362 C87.5563204,94.7417085 88.2438198,95.2473898 89.3460914,95.2473898 C90.5165449,95.2473898 91.3517714,94.7076176 91.3404077,93.3780734 L91.3404077,92.4973925 L91.2154078,92.4973925 C90.9654081,92.9576193 90.3119996,93.5883005 89.056319,93.5883005 C87.1870026,93.5883005 85.5790496,92.2246655 85.5790496,89.3269409 C85.5790496,86.4462619 87.1642753,84.9121724 89.0620008,84.9121724 C90.2267724,84.9121724 90.90859,85.5087628 91.2040442,86.1053531 L91.3233623,86.1053531 L91.3233623,85.0542177 Z M87.6813203,89.3212591 C87.6813203,90.9405758 88.4029105,91.8269386 89.6358639,91.8269386 C90.9256354,91.8269386 91.5051803,90.8383031 91.5051803,89.3212591 C91.5051803,87.8496696 90.9483626,86.7019434 89.6358639,86.7019434 C88.3347288,86.7019434 87.6813203,87.7814879 87.6813203,89.3212591 Z M99.1415457,93.9178457 C96.6415481,93.9178457 95.0790496,92.0598929 95.0790496,89.4064863 C95.0790496,86.7360343 96.6415481,84.9121724 99.1415457,84.9121724 C101.647225,84.9121724 103.204042,86.7360343 103.204042,89.4064863 C103.204042,92.0598929 101.647225,93.9178457 99.1415457,93.9178457 Z M99.1415457,92.1110292 C100.522226,92.1110292 101.090407,90.9519394 101.090407,89.4064863 C101.090407,87.8553514 100.522226,86.7019434 99.1415457,86.7019434 C97.766547,86.7019434 97.1926839,87.8553514 97.1926839,89.4064863 C97.1926839,90.9519394 97.766547,92.1110292 99.1415457,92.1110292 Z M108.533591,93.9178457 C106.033594,93.9178457 104.471095,92.0598929 104.471095,89.4064863 C104.471095,86.7360343 106.033594,84.9121724 108.533591,84.9121724 C111.039271,84.9121724 112.596087,86.7360343 112.596087,89.4064863 C112.596087,92.0598929 111.039271,93.9178457 108.533591,93.9178457 Z M108.533591,92.1110292 C109.914272,92.1110292 110.482453,90.9519394 110.482453,89.4064863 C110.482453,87.8553514 109.914272,86.7019434 108.533591,86.7019434 C107.158592,86.7019434 106.584729,87.8553514 106.584729,89.4064863 C106.584729,90.9519394 107.158592,92.1110292 108.533591,92.1110292 Z M121.783587,93.7530731 L119.607453,93.7530731 L119.607453,92.7189832 L119.488135,92.7189832 C119.192681,93.3212553 118.493818,93.906482 117.34041,93.906482 C115.385866,93.906482 113.86314,92.3098926 113.86314,89.3951227 C113.86314,86.4462619 115.448366,84.9121724 117.346092,84.9121724 C118.510863,84.9121724 119.192681,85.5087628 119.488135,86.1053531 L119.579044,86.1053531 L119.579044,82.1167205 L121.783587,82.1167205 L121.783587,93.7530731 Z M115.965411,89.3894409 C115.965411,91.0201211 116.624501,92.1110292 117.919955,92.1110292 C119.272226,92.1110292 119.789271,90.9178485 119.789271,89.3894409 C119.789271,87.8496696 119.266544,86.7019434 117.919955,86.7019434 C116.61882,86.7019434 115.965411,87.7644424 115.965411,89.3894409 Z M123.067686,95.9348892 C124.408594,93.6167096 124.976775,91.4576207 124.976775,89.0258049 C124.976775,86.50308 124.408594,84.4349002 123.044959,82.1167205 L124.851775,82.1167205 C126.152911,83.7985371 127.044955,86.3439892 127.044955,89.0258049 C127.044955,91.7076205 126.152911,94.2530726 124.908594,95.9348892 L123.067686,95.9348892 Z" transform="rotate(-45 82.664 80.094)"/>
      <path d="M-3.45455074,41.3927959 L2.27271652,58.0745982 L2.54544353,58.0745982 L8.2727108,41.3927959 L13.8181601,41.3927959 L5.22725916,64.665501 L-0.409099102,64.665501 L-9,41.3927959 L-3.45455074,41.3927959 Z M27.7068059,48.3018802 C27.6158969,46.5746091 26.5249889,45.4837011 24.2522638,45.4837011 C22.2068112,45.4837011 20.7522671,46.3473366 20.7522671,47.6655172 C20.7522671,49.1200613 22.6159017,49.7109698 25.1158993,50.6200598 L25.7522623,50.8927868 C30.1158945,52.4382399 32.7068012,54.347329 32.7068012,58.1200527 C32.7068012,62.5291394 29.16135,64.9836825 24.1159003,64.9836825 C19.4795411,64.9836825 14.9340908,62.6200484 14.9340908,57.1200536 L20.0249951,57.1200536 C20.1159041,59.3927787 21.6613572,60.6200503 24.1159003,60.6200503 C26.5704434,60.6200503 27.6158969,59.3927787 27.6158969,58.1655072 C27.6158969,56.7564176 26.3886254,55.7564186 22.7977197,54.620056 L22.3431747,54.4836925 C18.479542,53.3018755 15.6159084,51.0746049 15.6159084,47.6200627 C15.6159084,43.7109755 19.2522685,41.0746144 24.2522638,41.0746144 C29.252259,41.0746144 32.7068012,43.8927935 32.7068012,48.3018802 L27.7068059,48.3018802 Z M54.8795259,48.7109707 L49.7886217,49.4382428 C49.1068042,46.9836997 47.3795331,45.8018826 45.197717,45.8018826 C42.2431744,45.8018826 40.2431763,47.9382442 40.2431763,53.0746029 C40.2431763,58.2109617 42.2431744,60.2564143 45.197717,60.2564143 C47.3795331,60.2564143 49.0158952,59.1200517 49.6977127,56.7564176 L54.8340714,57.4836896 C53.5613454,62.3018669 49.8340762,64.9836825 45.197717,64.9836825 C39.2886317,64.9836825 34.9249995,60.6200503 34.9249995,53.0746029 C34.9249995,45.4837011 39.2886317,41.0746144 45.197717,41.0746144 C49.8340762,41.0746144 53.6067999,43.8018845 54.8795259,48.7109707 Z M76.9613436,53.0746029 C76.9613436,60.7109593 72.5522569,64.9836825 66.7795352,64.9836825 C60.9613589,64.9836825 56.5068177,60.7109593 56.5068177,53.0746029 C56.5068177,45.3927921 60.9613589,41.0746144 66.7795352,41.0746144 C72.5522569,41.0746144 76.9613436,45.3927921 76.9613436,53.0746029 Z M71.6431669,53.0746029 C71.6431669,47.8473352 69.6431688,45.8018826 66.7795352,45.8018826 C63.9159015,45.8018826 61.8249944,47.8473352 61.8249944,53.0746029 C61.8249944,58.3018707 63.9159015,60.2564143 66.7795352,60.2564143 C69.6431688,60.2564143 71.6431669,58.3018707 71.6431669,53.0746029 Z M87.2249914,64.665501 L78.9977265,64.665501 L78.9977265,41.3927959 L87.2249914,41.3927959 C94.0431667,41.3927959 98.2704354,45.7564281 98.2704354,53.0291484 C98.2704354,60.3018688 94.0431667,64.665501 87.2249914,64.665501 Z M86.9522644,45.9382461 L84.2704487,45.9382461 L84.2704487,60.1200508 L86.9977189,60.1200508 C90.8613515,60.1200508 92.9522586,58.1200527 92.9522586,53.0291484 C92.9522586,47.9382442 90.8613515,45.9382461 86.9522644,45.9382461 Z M116.215893,60.3018688 L116.215893,64.665501 L100.670454,64.665501 L100.670454,41.3927959 L116.215893,41.3927959 L116.215893,45.7564281 L105.943176,45.7564281 L105.943176,50.8473323 L114.624986,50.8473323 L114.624986,55.2109645 L105.943176,55.2109645 L105.943176,60.3018688 L116.215893,60.3018688 Z" transform="rotate(-45 53.608 53.03)"/>
    </g>
  </g>
</svg>
