<svg xmlns="http://www.w3.org/2000/svg" width="196" height="196" viewBox="0 0 196 196">
  <defs>
    <linearGradient id="a" x1="50%" x2="100%" y1="4.482%" y2="95.518%">
      <stop offset="0%" stop-color="#FFF600"/>
      <stop offset="100%" stop-color="#E9B500"/>
    </linearGradient>
  </defs>
  <g fill="none" fill-rule="evenodd">
    <rect width="196" height="196" fill="#C5E8CE"/>
    <path fill="#020C14" fill-rule="nonzero" d="M22.125892,148.847043 L22.125892,151.08035 L16.7888943,151.08035 L16.7888943,156.876154 L14.123769,156.876154 L14.123769,143.057986 L23.050252,143.057986 L23.050252,145.29804 L16.7888943,145.29804 L16.7888943,148.847043 L22.125892,148.847043 Z M27.9554426,143.057986 L27.9554426,156.876154 L25.2903173,156.876154 L25.2903173,143.057986 L27.9554426,143.057986 Z M32.7526729,143.057986 L35.5797299,147.963166 L35.6876843,147.963166 L38.5147413,143.057986 L41.55096,143.057986 L37.4284497,149.96707 L41.6251787,156.876154 L38.5552242,156.876154 L35.6876843,151.991216 L35.5797299,151.991216 L32.71219,156.876154 L29.6422356,156.876154 L33.8794474,149.96707 L29.7164542,143.057986 L32.7526729,143.057986 Z M55.8346995,146.984829 C55.7199979,145.817571 54.8968453,145.122614 53.4462075,145.122614 C52.0293054,145.122614 51.0577155,145.783835 51.0577155,146.748678 C51.0577155,147.686532 52.0765355,148.145339 53.6688635,148.66487 L54.3773146,148.894273 C56.9749683,149.744414 58.4323533,150.884683 58.4323533,153.02353 C58.4323533,155.526724 56.4217018,157.085316 53.3652417,157.085316 C50.5381847,157.085316 48.1159569,155.634678 48.0687268,152.69292 L50.6731278,152.69292 C50.7540936,154.109822 51.8471323,154.838514 53.3652417,154.838514 C54.9643168,154.838514 55.854941,154.022109 55.854941,153.043772 C55.854941,152.078929 55.0722713,151.505421 53.027884,150.877936 L52.2991915,150.668774 C50.0523897,149.994059 48.4600617,148.739088 48.4600617,146.748678 C48.4600617,144.427658 50.5989091,142.869065 53.4597018,142.869065 C56.3339888,142.869065 58.3243989,144.508624 58.3716289,146.984829 L55.8346995,146.984829 Z M63.2228432,143.057986 L63.2228432,156.876154 L60.5577179,156.876154 L60.5577179,143.057986 L63.2228432,143.057986 Z M76.0087023,143.057986 L76.0087023,145.29804 L71.8659505,145.29804 L71.8659505,156.876154 L69.2210667,156.876154 L69.2210667,145.29804 L65.078315,145.29804 L65.078315,143.057986 L76.0087023,143.057986 Z M86.8446411,154.6361 L86.8446411,156.876154 L77.8641809,156.876154 L77.8641809,143.057986 L86.8109053,143.057986 L86.8109053,145.29804 L80.5293062,145.29804 L80.5293062,148.847043 L85.9472698,148.847043 L85.9472698,151.08035 L80.5293062,151.08035 L80.5293062,154.6361 L86.8446411,154.6361 Z" transform="rotate(-135 50.484 149.977)"/>
    <path fill="#020C14" fill-rule="nonzero" d="M124.045717,47.5985702 L124.045717,61.4167389 L121.380592,61.4167389 L121.380592,47.5985702 L124.045717,47.5985702 Z M137.492797,47.5985702 L137.492797,61.4167389 L134.881649,61.4167389 L129.214041,52.1731397 L129.09934,52.1731397 L129.09934,61.4167389 L126.434214,61.4167389 L126.434214,47.5985702 L129.065604,47.5985702 L134.719718,56.8624108 L134.834419,56.8624108 L134.834419,47.5985702 L137.492797,47.5985702 Z M147.782223,47.5985702 L147.782223,61.4167389 L145.117098,61.4167389 L145.117098,47.5985702 L147.782223,47.5985702 Z M159.15118,59.1766842 L159.15118,61.4167389 L150.17072,61.4167389 L150.17072,47.5985702 L159.117444,47.5985702 L159.117444,49.8386249 L152.835845,49.8386249 L152.835845,53.3876272 L158.253809,53.3876272 L158.253809,55.6209347 L152.835845,55.6209347 L152.835845,59.1766842 L159.15118,59.1766842 Z M167.747063,51.2015498 C167.497419,50.283937 166.964394,49.5350031 165.824125,49.5350031 C164.494936,49.5350031 163.597564,50.5470759 163.476116,53.5900418 C164.090107,52.8748436 165.014467,52.4295315 166.188471,52.4295315 C168.779378,52.4295315 170.378453,54.5818732 170.378453,57.004101 C170.378453,59.5680191 168.597205,61.6056592 165.803883,61.6056592 C162.895861,61.6056592 161.026899,59.3790988 161.026899,55.3173129 L161.026899,54.8045293 C161.026899,50.283937 162.160421,47.3624199 165.776895,47.3624199 C168.313824,47.3624199 169.771209,48.826552 170.236763,51.2015498 L167.747063,51.2015498 Z M163.503104,56.7409621 C163.503104,58.6099234 164.542166,59.4870532 165.743159,59.4870532 C167.004877,59.4870532 167.834776,58.5222104 167.834776,57.004101 C167.834776,55.5939461 167.112831,54.5413903 165.702676,54.5413903 C164.359993,54.5413903 163.503104,55.4792445 163.503104,56.6667434 L163.503104,56.7409621 Z" transform="rotate(-135 145.88 54.484)"/>
    <g transform="rotate(-135 86.027 70.387)">
      <path fill="url(#a)" d="M3.03400095,98.1567389 L50.4825206,6.77440483 C51.5005256,4.81380263 53.9151638,4.04967662 55.875766,5.0676816 C56.5977042,5.44253413 57.1881953,6.02858746 57.5684832,6.74767736 L105.895679,98.1300115 C106.928445,100.082878 106.182556,102.503212 104.229689,103.535978 C103.653478,103.840705 103.011527,104 102.359701,104 L6.58398525,104 C4.37484625,104 2.58398525,102.209139 2.58398525,100 C2.58398525,99.3583797 2.73833254,98.7261744 3.03400095,98.1567389 Z"/>
      <path fill="#020C14" fill-rule="nonzero" d="M59,38 L58.0294118,71 L50.9926471,71 L50,38 L59,38 Z M54.9563319,86 C52.0087336,86 50,83.8409091 50,81 C50,78.1818182 52.0087336,76 54.9563319,76 C57.8820961,76 60,78.1818182 60,81 C60,83.8409091 57.8820961,86 54.9563319,86 Z"/>
    </g>
  </g>
</svg>
