<svg xmlns="http://www.w3.org/2000/svg" width="194" height="194" viewBox="0 0 194 194">
  <defs>
    <radialGradient id="a" cx="100%" cy="0%" r="141.421%" fx="100%" fy="0%">
      <stop offset="0%" stop-color="#87E9FD"/>
      <stop offset="100%" stop-color="#127ECA"/>
    </radialGradient>
  </defs>
  <g fill="none" fill-rule="evenodd">
    <rect width="194" height="194" fill="#C5E8CE"/>
    <rect width="141" height="141" x="53" fill="url(#a)"/>
    <polygon fill="#000000" points="47 0 53 0 53 141 194 141 194 147 47 147"/>
    <path fill="#000000" fill-rule="nonzero" d="M7.9005608,24.2386428 L7.9005608,26.1193228 L3.4062469,26.1193228 L3.4062469,31 L1.16193086,31 L1.16193086,19.3636475 L8.67896914,19.3636475 L8.67896914,21.2500093 L3.4062469,21.2500093 L3.4062469,24.2386428 L7.9005608,24.2386428 Z M12.809656,19.3636475 L12.809656,31 L10.5653399,31 L10.5653399,19.3636475 L12.809656,19.3636475 Z M16.8494289,19.3636475 L19.2301085,23.4943253 L19.3210175,23.4943253 L21.701697,19.3636475 L24.2585128,19.3636475 L20.7869252,25.1818237 L24.3210127,31 L21.7357879,31 L19.3210175,26.8863676 L19.2301085,26.8863676 L16.815338,31 L14.2301132,31 L17.7982917,25.1818237 L14.2926132,19.3636475 L16.8494289,19.3636475 Z M27.9857924,19.3636475 L27.9857924,31 L25.7414763,31 L25.7414763,19.3636475 L27.9857924,19.3636475 Z M39.3096493,19.3636475 L39.3096493,31 L37.1107877,31 L32.338065,23.2159165 L32.2414742,23.2159165 L32.2414742,31 L29.9971581,31 L29.9971581,19.3636475 L32.2130651,19.3636475 L36.9744242,27.1647764 L37.071015,27.1647764 L37.071015,19.3636475 L39.3096493,19.3636475 Z M51.0312398,24.9204603 L51.0312398,26.630686 C51.0312398,29.3693197 48.9062418,31.1590908 46.2357898,31.1590908 C43.2755654,31.1590908 41.0823856,28.9715928 41.0823856,25.1988692 C41.0823856,21.4091001 43.2585199,19.2045567 46.1732899,19.2045567 C48.4289695,19.2045567 50.2585132,20.5227373 50.9744217,22.8920532 L48.7073784,23.1363711 C48.2982878,21.835236 47.3039706,21.2329639 46.1732899,21.2329639 C44.5710187,21.2329639 43.3267017,22.4545536 43.3267017,25.1988692 C43.3267017,27.9431847 44.5880641,29.1306836 46.2357898,29.1306836 C47.7187429,29.1306836 48.8494237,28.1590936 48.8494237,26.630686 L46.411926,26.630686 L46.411926,24.9204603 L51.0312398,24.9204603 Z" transform="rotate(45 74.904 187.399)"/>
    <path fill="#000000" fill-rule="nonzero" d="M7.61079236,9.36364746 L7.61079236,21 L5.36647631,21 L5.36647631,9.36364746 L7.61079236,9.36364746 Z M17.1846509,19.1136382 L17.1846509,21 L9.62215813,21 L9.62215813,9.36364746 L17.1562419,9.36364746 L17.1562419,11.2500093 L11.8664742,11.2500093 L11.8664742,14.2386428 L16.4289698,14.2386428 L16.4289698,16.1193228 L11.8664742,16.1193228 L11.8664742,19.1136382 L17.1846509,19.1136382 Z M24.4232894,12.3977355 C24.2130623,11.6250089 23.7641991,10.9943277 22.8039728,10.9943277 C21.6846557,10.9943277 20.9289746,11.8465996 20.8267019,14.4090972 C21.3437469,13.806825 22.1221552,13.4318254 23.1107907,13.4318254 C25.2926068,13.4318254 26.6391964,15.2443237 26.6391964,17.2840945 C26.6391964,19.4431833 25.1391978,21.1590908 22.7869273,21.1590908 C20.338066,21.1590908 18.7642039,19.2840925 18.7642039,15.8636413 L18.7642039,15.4318235 C18.7642039,11.6250089 19.7187484,9.16478401 22.7642039,9.16478401 C24.9005617,9.16478401 26.1278332,10.3977374 26.5198783,12.3977355 L24.4232894,12.3977355 Z M20.8494292,17.0625038 C20.8494292,18.6363659 21.7244283,19.3750015 22.735791,19.3750015 C23.79829,19.3750015 24.497153,18.5625023 24.497153,17.2840945 C24.497153,16.0965956 23.889199,15.2102328 22.7017001,15.2102328 C21.5710194,15.2102328 20.8494292,16.0000048 20.8494292,17.0000038 L20.8494292,17.0625038 Z" transform="rotate(45 -78.33 139.088)"/>
    <path fill="#020C14" fill-rule="nonzero" d="M10.6079329,59.7890173 L10.6079329,51.5 L13,51.5 L13,59.7890173 C13,62.0953757 11.3096873,63.5 8.98474447,63.5 C6.70861937,63.5 5,62.3265896 5,60.0144509 L7.39206712,60.0144509 C7.41037376,61.0549133 8.08161709,61.632948 9.01525553,61.632948 C9.90617849,61.632948 10.6079329,61.0606936 10.6079329,59.7890173 Z M21.333638,52 L23.5,52 L23.5,59.8095238 C23.5,62.4992785 21.6078611,64 19.0137112,64 C16.4085923,64 14.5,62.4992785 14.5,59.8095238 L14.5,52 L16.666362,52 L16.666362,59.7460317 C16.666362,61.1255411 17.6809872,61.9336219 19.0137112,61.9336219 C20.3519196,61.9336219 21.333638,61.1255411 21.333638,59.7460317 L21.333638,52 Z M32.2441406,55.4741338 C32.1445312,54.4888467 31.4296875,53.9022307 30.1699219,53.9022307 C28.9394531,53.9022307 28.0957031,54.4603702 28.0957031,55.2747983 C28.0957031,56.0664452 28.9804687,56.4537257 30.3632812,56.8922639 L30.9785156,57.0859041 C33.234375,57.8035121 34.5,58.766018 34.5,60.5714286 C34.5,62.6843854 32.7539062,64 30.0996094,64 C27.6445312,64 25.5410156,62.7755102 25.5,60.2923588 L27.7617187,60.2923588 C27.8320312,61.4883721 28.78125,62.1034646 30.0996094,62.1034646 C31.4882812,62.1034646 32.2617187,61.4143332 32.2617187,60.5885145 C32.2617187,59.7740864 31.5820312,59.2899858 29.8066406,58.7603227 L29.1738281,58.5837684 C27.2226562,58.0142383 25.8398437,56.9549122 25.8398437,55.2747983 C25.8398437,53.3156146 27.6972656,52 30.1816406,52 C32.6777344,52 34.40625,53.3839582 34.4472656,55.4741338 L32.2441406,55.4741338 Z M44.5,52 L44.5,53.9453125 L41.0888889,53.9453125 L41.0888889,64 L38.9111111,64 L38.9111111,53.9453125 L35.5,53.9453125 L35.5,52 L44.5,52 Z" transform="rotate(90 24.75 57.75)"/>
    <path fill="#020C14" fill-rule="nonzero" d="M54,166.145913 L51.5821408,166.411597 C51.2043503,164.941065 50.0646823,164.205798 48.6920435,164.205798 C46.8345736,164.205798 45.4871208,165.565114 45.4871208,168.518536 C45.4871208,171.465779 46.8345736,172.794202 48.6920435,172.794202 C50.0646823,172.794202 51.1728678,172.071293 51.5506583,170.637833 L53.987407,170.903517 C53.3514596,173.51711 51.2736119,175 48.6920435,175 C45.4115627,175 43,172.590304 43,168.518536 C43,164.428232 45.4115627,162 48.6920435,162 C51.2736119,162 53.3703492,163.501426 54,166.145913 Z M66,168.518536 C66,172.621198 63.6450361,175 60.5152524,175 C57.3732668,175 55,172.621198 55,168.518536 C55,164.397338 57.3732668,162 60.5152524,162 C63.6450361,162 66,164.397338 66,168.518536 Z M64,168.519424 C64,165.392086 62.7384008,164 61.0148075,164 C59.2971372,164 58,165.392086 58,168.519424 C58,171.646763 59.2971372,173 61.0148075,173 C62.7384008,173 64,171.646763 64,168.519424 Z M68,162 L70.9705747,162 L74.4372414,171.058105 L74.5806897,171.058105 L78.0354023,162 L81,162 L81,175 L78.6689655,175 L78.6689655,166.132324 L78.5673563,166.132324 L75.3517241,174.828613 L73.6542529,174.828613 L70.4326437,166.094238 L70.3310345,166.094238 L70.3310345,175 L68,175 L68,162 Z M84,162 L86.9705747,162 L90.4372414,171.058105 L90.5806897,171.058105 L94.0354023,162 L97,162 L97,175 L94.6689655,175 L94.6689655,166.132324 L94.5673563,166.132324 L91.3517241,174.828613 L89.6542529,174.828613 L86.4326437,166.094238 L86.3310345,166.094238 L86.3310345,175 L84,175 L84,162 Z M102,162 L102,175 L100,175 L100,162 L102,162 Z M110.744141,165.763645 C110.644531,164.696251 109.929688,164.06075 108.669922,164.06075 C107.439453,164.06075 106.595703,164.665401 106.595703,165.547698 C106.595703,166.405316 107.480469,166.824869 108.863281,167.299953 L109.478516,167.509729 C111.734375,168.287138 113,169.329853 113,171.285714 C113,173.574751 111.253906,175 108.599609,175 C106.144531,175 104.041016,173.673469 104,170.983389 L106.261719,170.983389 C106.332031,172.27907 107.28125,172.94542 108.599609,172.94542 C109.988281,172.94542 110.761719,172.198861 110.761719,171.304224 C110.761719,170.421927 110.082031,169.897485 108.306641,169.323683 L107.673828,169.132416 C105.722656,168.515425 104.339844,167.367822 104.339844,165.547698 C104.339844,163.425249 106.197266,162 108.681641,162 C111.177734,162 112.90625,163.499288 112.947266,165.763645 L110.744141,165.763645 Z M123,172.892578 L123,175 L115,175 L115,162 L122.969947,162 L122.969947,164.107422 L117.374155,164.107422 L117.374155,167.446289 L122.200601,167.446289 L122.200601,169.547363 L117.374155,169.547363 L117.374155,172.892578 L123,172.892578 Z M132.18509,175 L129.742931,170.137695 L127.53856,170.137695 L127.53856,175 L125,175 L125,162 L129.852185,162 C132.969152,162 134.485861,163.618652 134.485861,166.037109 C134.485861,167.839844 133.598972,169.001465 132.275064,169.655273 L135,175 L132.18509,175 Z M128,164 L128,168 L130.034783,168 C131.350725,168 132,167.282714 132,166.016155 C132,164.846527 131.426087,164 130.086957,164 L128,164 Z M138.637636,175 L136,175 L140.696734,162 L143.303266,162 L148,175 L145.368585,175 L144.44168,172.232422 L139.564541,172.232422 L138.637636,175 Z M141.43617,165 L140,170 L143,170 L141.56383,165 L141.43617,165 Z M159,162 L159,164.107422 L155.209877,164.107422 L155.209877,175 L152.790123,175 L152.790123,164.107422 L149,164.107422 L149,162 L159,162 Z M163,162 L163,175 L161,175 L161,162 L163,162 Z M175,162 L175,175 L172.638804,175 L167.513728,166.303711 L167.410006,166.303711 L167.410006,175 L165,175 L165,162 L167.3795,162 L172.492373,170.715332 L172.596095,170.715332 L172.596095,162 L175,162 Z M188,168.215779 L188,170.07557 C188,173.053707 185.650485,175 182.697887,175 C179.4249,175 177,172.621198 177,168.518536 C177,164.397338 179.406054,162 182.628784,162 C185.122787,162 187.145631,163.43346 187.937179,166.009981 L185.430611,166.275665 C184.978298,164.860741 183.878926,164.205798 182.628784,164.205798 C180.857224,164.205798 179.481439,165.534221 179.481439,168.518536 C179.481439,171.502852 180.876071,172.794202 182.697887,172.794202 C184.337521,172.794202 185.587664,171.737643 185.587664,170.07557 L182.892633,170.07557 L182.892633,168.215779 L188,168.215779 Z"/>
  </g>
</svg>
