<svg xmlns="http://www.w3.org/2000/svg" width="145" height="148" viewBox="0 0 145 148">
  <g fill="none" fill-rule="evenodd" transform="translate(-8.95 -4.45)">
    <path fill="#000000" fill-rule="nonzero" d="M76.1091775,108.643287 L76.1091775,123.915999 L74.2597475,123.915999 L74.2597475,108.643287 L76.1091775,108.643287 Z M91.6205317,108.643287 L91.6205317,123.915999 L89.8307606,123.915999 L81.8066206,111.954363 L81.657473,111.954363 L81.657473,123.915999 L79.8080429,123.915999 L79.8080429,108.643287 L81.5978139,108.643287 L89.6517835,120.664582 L89.8009311,120.664582 L89.8009311,108.643287 L91.6205317,108.643287 Z M103.612012,112.580783 C103.343547,110.940159 102.031048,110.075103 100.181618,110.075103 C98.1532107,110.075103 96.8108824,111.148966 96.8108824,112.640442 C96.8108824,113.863452 97.7355974,114.60919 99.7640046,115.146121 L101.315139,115.563734 C104.208603,116.339302 105.61059,117.621971 105.61059,119.739867 C105.61059,122.245546 103.612012,124.184465 100.092129,124.184465 C96.8108824,124.184465 94.7824753,122.484182 94.6034982,119.978503 L96.5125872,119.978503 C96.6617348,121.708615 98.2725287,122.514012 100.092129,122.514012 C102.210025,122.514012 103.820819,121.41032 103.820819,119.739867 C103.820819,118.367709 102.836445,117.800948 100.778208,117.204358 L98.8989486,116.667427 C96.5125872,115.981348 95.0211114,114.758338 95.0211114,112.700101 C95.0211114,110.134762 97.3179842,108.43448 100.241277,108.43448 C103.194399,108.43448 105.252636,110.164592 105.401783,112.580783 L103.612012,112.580783 Z M113.78389,118.397539 L110.502643,118.397539 L110.502643,123.915999 L108.653213,123.915999 L108.653213,108.643287 L113.754061,108.643287 C117.333603,108.643287 118.884738,110.731353 118.884738,113.475668 C118.884738,116.219984 117.333603,118.397539 113.78389,118.397539 Z M110.502643,110.28391 L110.502643,116.756915 L113.78389,116.756915 C116.229911,116.756915 117.065137,115.354928 117.065137,113.475668 C117.065137,111.596409 116.229911,110.28391 113.754061,110.28391 L110.502643,110.28391 Z M131.293829,122.275376 L131.293829,123.915999 L121.957191,123.915999 L121.957191,108.643287 L131.174511,108.643287 L131.174511,110.28391 L123.806621,110.28391 L123.806621,115.444416 L130.398944,115.444416 L130.398944,117.08504 L123.806621,117.08504 L123.806621,122.275376 L131.293829,122.275376 Z M146.80519,113.416009 L144.95576,113.416009 C144.508317,111.298114 142.688717,110.164592 140.66031,110.164592 C137.886165,110.164592 135.70861,112.312317 135.70861,116.279643 C135.70861,120.246969 137.886165,122.394694 140.66031,122.394694 C142.688717,122.394694 144.508317,121.261172 144.95576,119.143277 L146.80519,119.143277 C146.238429,122.275376 143.73275,124.124806 140.66031,124.124806 C136.752643,124.124806 133.918839,121.112025 133.918839,116.279643 C133.918839,111.447261 136.752643,108.43448 140.66031,108.43448 C143.73275,108.43448 146.238429,110.28391 146.80519,113.416009 Z M160.407465,108.643287 L160.407465,110.28391 L155.604912,110.28391 L155.604912,123.915999 L153.755482,123.915999 L153.755482,110.28391 L148.95293,110.28391 L148.95293,108.643287 L160.407465,108.643287 Z" transform="rotate(135 117.334 116.31)"/>
    <path fill="#000000" fill-rule="nonzero" d="M6.8418026,49.4433773 L6.8418026,51.0840008 L-2.49483622,51.0840008 L-2.49483622,35.8112881 L6.72248453,35.8112881 L6.72248453,37.4519115 L-0.645406168,37.4519115 L-0.645406168,42.6124179 L5.94691709,42.6124179 L5.94691709,44.2530414 L-0.645406168,44.2530414 L-0.645406168,49.4433773 L6.8418026,49.4433773 Z M19.0122575,49.4433773 L19.0122575,51.0840008 L10.0634024,51.0840008 L10.0634024,35.8112881 L11.9128325,35.8112881 L11.9128325,49.4433773 L19.0122575,49.4433773 Z M31.2125412,49.4433773 L31.2125412,51.0840008 L21.8759024,51.0840008 L21.8759024,35.8112881 L31.0932232,35.8112881 L31.0932232,37.4519115 L23.7253325,37.4519115 L23.7253325,42.6124179 L30.3176557,42.6124179 L30.3176557,44.2530414 L23.7253325,44.2530414 L23.7253325,49.4433773 L31.2125412,49.4433773 Z M34.4341411,35.8112881 L36.4923777,35.8112881 L41.7125432,48.2800262 L41.8915203,48.2800262 L47.0520267,35.8112881 L49.1102634,35.8112881 L49.1102634,51.0840008 L47.3801514,51.0840008 L47.3801514,39.6294662 L47.2310038,39.6294662 L42.6074287,50.9646827 L40.9369758,50.9646827 L36.3134006,39.6294662 L36.164253,39.6294662 L36.164253,51.0840008 L34.4341411,51.0840008 L34.4341411,35.8112881 Z M62.1457799,49.4433773 L62.1457799,51.0840008 L52.8091411,51.0840008 L52.8091411,35.8112881 L62.0264618,35.8112881 L62.0264618,37.4519115 L54.6585711,37.4519115 L54.6585711,42.6124179 L61.2508944,42.6124179 L61.2508944,44.2530414 L54.6585711,44.2530414 L54.6585711,49.4433773 L62.1457799,49.4433773 Z M77.1798684,35.8112881 L77.1798684,51.0840008 L75.3900974,51.0840008 L67.3659573,39.1223644 L67.2168097,39.1223644 L67.2168097,51.0840008 L65.3673797,51.0840008 L65.3673797,35.8112881 L67.1571507,35.8112881 L75.2111203,47.8325834 L75.3602679,47.8325834 L75.3602679,35.8112881 L77.1798684,35.8112881 Z M91.4980514,35.8112881 L91.4980514,37.4519115 L86.6954991,37.4519115 L86.6954991,51.0840008 L84.8460691,51.0840008 L84.8460691,37.4519115 L80.0435168,37.4519115 L80.0435168,35.8112881 L91.4980514,35.8112881 Z" transform="rotate(135 44.502 43.448)"/>
    <path stroke="#2A2A2A" stroke-linejoin="round" stroke-width="4" d="M73.2071068,101.292893 L63.2071068,101.292893 C60.9979678,101.292893 59.2071068,99.5020322 59.2071068,97.2928932 L59.2071068,61.2928932 C59.2071068,59.0837542 60.9979678,57.2928932 63.2071068,57.2928932 L99.2071068,57.2928932 C101.416246,57.2928932 103.207107,59.0837542 103.207107,61.2928932 L103.207107,71.2928932" transform="rotate(135 81.207 79.293)"/>
    <polygon fill="#2A2A2A" stroke="#2A2A2A" stroke-width="4" points="50.237 65.293 56.237 89.293 62.237 79.293 76.237 93.293 78.237 91.293 64.237 75.293 74.237 71.293" transform="rotate(135 64.237 79.293)"/>
  </g>
</svg>
