<svg xmlns="http://www.w3.org/2000/svg" width="28" height="50" viewBox="0 0 28 50">
  <path fill="#FFFFFF" d="M0.875,0 C0.398438,0.0898438 0.054688,0.511719 0.0625,1 L0.0625,49 C0.0625,49.550781 0.511719,50 1.0625,50 L10.3125,50 C10.820313,50.003906 11.25,49.628906 11.3125,49.125 L14,24.90625 L16.6875,49.125 C16.75,49.628906 17.179688,50.003906 17.6875,50 L26.9375,50 C27.488281,50 27.9375,49.550781 27.9375,49 L27.9375,1 C27.9375,0.449219 27.488281,0 26.9375,0 L1.0625,0 C1.03125,0 1,0 0.96875,0 C0.9375,0 0.90625,0 0.875,0 Z M2.0625,2 L25.9375,2 L25.9375,4 L20.1875,4 C20.054688,3.972656 19.914063,3.972656 19.78125,4 L8.1875,4 C8.054688,3.972656 7.914063,3.972656 7.78125,4 L2.0625,4 L2.0625,2 Z M2.0625,6 L6.96875,6 C6.742188,9.285156 5.414063,10.9375 4.125,11.875 C3.332031,12.453125 2.59375,12.707031 2.0625,12.84375 L2.0625,6 Z M8.9375,6 L19.0625,6 C19.316406,9.867188 20.964844,12.214844 22.6875,13.46875 C23.96875,14.402344 25.246094,14.730469 25.9375,14.875 L25.9375,48 L18.59375,48 L15,15.65625 C14.992188,15.109375 14.546875,14.671875 14,14.671875 C13.453125,14.671875 13.007813,15.109375 13,15.65625 L9.40625,48 L2.0625,48 L2.0625,14.875 C2.753906,14.730469 4.03125,14.402344 5.3125,13.46875 C7.035156,12.214844 8.683594,9.867188 8.9375,6 Z M21.03125,6 L25.9375,6 L25.9375,12.84375 C25.40625,12.707031 24.667969,12.453125 23.875,11.875 C22.585938,10.9375 21.257813,9.285156 21.03125,6 Z"/>
</svg>
