<svg xmlns="http://www.w3.org/2000/svg" width="50" height="48" viewBox="0 0 50 48">
  <g fill="none" fill-rule="evenodd" stroke="#FFFFFF" stroke-width="2" transform="translate(1 1)">
    <path stroke-linecap="round" stroke-linejoin="round" d="M36.923 20.525C36.923 20.525 41 26.787 41 28 41 29.212 41 42 41 42L48 42C48 42 48 29.379 48 27.439 48 25.499 44.625 17 43.113 12.923 41.27 7.953 38.127 5.842 36.923 5.538M11.077 20.525C11.077 20.525 7 26.787 7 28 7 29.212 7 42 7 42L0 42C0 42 0 29.379 0 27.439 0 25.499 3.375 17 4.887 12.923 6.73 7.953 9.873 5.842 11.077 5.538M11 21L11 46 37 46 36.923 26.063 37 21M36.923 5.538L32 4 30 1C30 1 29.047 7 24 7 18.953 7 18 1 18 1L16 4 11.077 5.538M18 1C18 1 20.12 0 24 0 27.88 0 30 1 30 1"/>
    <polyline stroke-linecap="round" stroke-linejoin="round" points="25 7 30 12 32 4"/>
    <polyline stroke-linecap="round" stroke-linejoin="round" points="23 7 18 12 16 4"/>
    <path d="M24,7.5 L24,46"/>
  </g>
</svg>
