<svg xmlns="http://www.w3.org/2000/svg" width="48" height="42" viewBox="0 0 48 42">
  <path fill="#FFFFFF" d="M16.8125,17 C16.335938,17.089844 15.992188,17.511719 16,18 L16,22.75 C14.214844,28.269531 14,35.4375 14,35.4375 C14,35.449219 14,35.457031 14,35.46875 L14,40.78125 C13.972656,40.914063 13.972656,41.054688 14,41.1875 L14,58 C14,58.550781 14.449219,59 15,59 L34,59 C34.464844,58.996094 34.867188,58.671875 34.96875,58.21875 L38,43.8125 L41.03125,58.21875 C41.132813,58.671875 41.535156,58.996094 42,59 L61,59 C61.550781,59 62,58.550781 62,58 L62,41.21875 C62.03125,41.074219 62.03125,40.925781 62,40.78125 L62,35.46875 C62,35.457031 62,35.449219 62,35.4375 C62,35.4375 61.785156,28.265625 60,22.75 L60,18 C60,17.449219 59.550781,17 59,17 L17,17 C16.96875,17 16.9375,17 16.90625,17 C16.875,17 16.84375,17 16.8125,17 Z M18,19 L58,19 L58,22.4375 C57.945313,22.621094 57.945313,22.816406 58,23 L18,23 L18,22.875 C18.003906,22.832031 18.003906,22.792969 18,22.75 L18,19 Z M17.40625,25 L27,25 C27,31.683594 23.988281,35.324219 20.9375,37.4375 C18.996094,38.78125 17.152344,39.410156 16,39.71875 L16,35.46875 C16,35.421875 16.203125,29.792969 17.40625,25 Z M29,25 L47,25 C47,32.300781 50.488281,36.671875 53.9375,39.0625 C56.386719,40.761719 58.785156,41.511719 60,41.8125 L60,57 L42.8125,57 L38.96875,38.78125 C38.855469,38.339844 38.457031,38.03125 38,38.03125 C37.542969,38.03125 37.144531,38.339844 37.03125,38.78125 L33.1875,57 L16,57 L16,41.8125 C17.214844,41.511719 19.613281,40.761719 22.0625,39.0625 C25.511719,36.671875 29,32.300781 29,25 Z M49,25 L58.59375,25 C59.796875,29.792969 60,35.421875 60,35.46875 L60,39.71875 C58.847656,39.410156 57.003906,38.78125 55.0625,37.4375 C52.011719,35.324219 49,31.683594 49,25 Z" transform="translate(-14 -17)"/>
</svg>
