<svg xmlns="http://www.w3.org/2000/svg" width="50" height="44" viewBox="0 0 50 44">
  <path fill="#FFFFFF" d="M9.84375,1 C9.351563,1.078125 8.992188,1.503906 9,2 L9,5.875 L0.03125,39.75 C-0.0351563,40.015625 0.0078125,40.300781 0.15625,40.53125 C0.15625,40.53125 0.304688,40.714844 0.46875,40.875 C0.632813,41.035156 0.851563,41.25 1.1875,41.46875 C1.863281,41.910156 2.957031,42.449219 4.6875,42.96875 C8.152344,44.011719 14.222656,45 25,45 C35.777344,45 41.847656,44.011719 45.3125,42.96875 C47.042969,42.449219 48.136719,41.910156 48.8125,41.46875 C49.148438,41.25 49.367188,41.035156 49.53125,40.875 C49.695313,40.714844 49.84375,40.53125 49.84375,40.53125 C49.992188,40.300781 50.035156,40.015625 49.96875,39.75 L41,5.875 L41,2 C41.003906,1.707031 40.878906,1.425781 40.652344,1.230469 C40.429688,1.039063 40.136719,0.953125 39.84375,1 C39.84375,1 32.875,2 25,2 C17.125,2 10.15625,1 10.15625,1 C10.050781,0.984375 9.949219,0.984375 9.84375,1 Z M11,3.125 C12.484375,3.320313 17.976563,4 25,4 C32.023438,4 37.515625,3.320313 39,3.125 L39,5.09375 C37.859375,5.246094 32.183594,6 25,6 C17.816406,6 12.140625,5.246094 11,5.09375 L11,3.125 Z M10.75,7.125 C11.550781,7.226563 12.804688,7.367188 14.6875,7.53125 C14.648438,7.945313 14.480469,8.914063 13.84375,10.0625 C13.097656,11.410156 11.734375,12.945313 8.9375,13.9375 L10.75,7.125 Z M39.25,7.125 L41.0625,13.9375 C38.265625,12.945313 36.902344,11.410156 36.15625,10.0625 C35.519531,8.914063 35.351563,7.945313 35.3125,7.53125 C37.195313,7.367188 38.449219,7.226563 39.25,7.125 Z M16.65625,7.6875 C19.082031,7.863281 21.960938,8 25,8 C28.039063,8 30.917969,7.863281 33.34375,7.6875 C33.402344,8.296875 33.613281,9.601563 34.40625,11.03125 C35.476563,12.964844 37.644531,15.140625 41.65625,16.21875 L47.875,39.65625 C47.8125,39.703125 47.808594,39.722656 47.71875,39.78125 C47.242188,40.089844 46.339844,40.550781 44.75,41.03125 C41.570313,41.988281 35.652344,43 25,43 C14.347656,43 8.429688,41.988281 5.25,41.03125 C3.660156,40.550781 2.757813,40.089844 2.28125,39.78125 C2.191406,39.722656 2.1875,39.703125 2.125,39.65625 L8.34375,16.21875 C12.355469,15.140625 14.523438,12.964844 15.59375,11.03125 C16.386719,9.601563 16.597656,8.296875 16.65625,7.6875 Z" transform="translate(0 -1)"/>
</svg>
