<svg xmlns="http://www.w3.org/2000/svg" width="50" height="47" viewBox="0 0 50 47">
  <path fill="#FFFFFF" d="M25,0 C21.59375,0 19.46875,0.753906 18.84375,1 L18.8125,1 L11.9375,2.03125 L11.875,2.03125 C11.84375,2.039063 11.8125,2.050781 11.78125,2.0625 C11.71875,2.078125 11.652344,2.097656 11.59375,2.125 C11.5,2.175781 11.417969,2.238281 11.34375,2.3125 C11.332031,2.324219 11.324219,2.332031 11.3125,2.34375 C11.277344,2.371094 11.246094,2.402344 11.21875,2.4375 C11.195313,2.457031 11.175781,2.476563 11.15625,2.5 C11.148438,2.507813 11.132813,2.523438 11.125,2.53125 C11.113281,2.550781 11.101563,2.574219 11.09375,2.59375 C10.53125,3.183594 8.15625,5.71875 5.6875,9.4375 C2.878906,13.667969 0,19.285156 0,25 L0,39 C0,39.550781 0.449219,40 1,40 L8,40 C8.550781,40 9,39.550781 9,39 L9,25 C9,25.128906 9.027344,24.863281 9.125,24.5625 C9.222656,24.261719 9.375,23.859375 9.5625,23.40625 C9.933594,22.503906 10.433594,21.394531 10.9375,20.3125 C10.960938,20.265625 10.976563,20.234375 11,20.1875 L11,46 C11,46.550781 11.449219,47 12,47 L38,47 C38.550781,47 39,46.550781 39,46 L39,20.1875 C39.023438,20.234375 39.039063,20.265625 39.0625,20.3125 C39.566406,21.394531 40.066406,22.503906 40.4375,23.40625 C40.625,23.859375 40.777344,24.261719 40.875,24.5625 C40.972656,24.863281 41,25.128906 41,25 L41,39 C41,39.550781 41.449219,40 42,40 L49,40 C49.550781,40 50,39.550781 50,39 L50,25 C50,19.285156 47.121094,13.667969 44.3125,9.4375 C41.796875,5.648438 39.375,3.085938 38.875,2.5625 C38.875,2.550781 38.875,2.542969 38.875,2.53125 C38.777344,2.371094 38.636719,2.242188 38.46875,2.15625 C38.363281,2.09375 38.246094,2.050781 38.125,2.03125 L38.09375,2.03125 L31.1875,1 C31.175781,0.996094 31.167969,1.003906 31.15625,1 C30.53125,0.753906 28.40625,0 25,0 Z M25,2 C27.128906,2 28.5625,2.277344 29.46875,2.53125 C28.6875,3.546875 27.175781,5 25,5 C22.824219,5 21.3125,3.546875 20.53125,2.53125 C21.4375,2.277344 22.871094,2 25,2 Z M18.59375,3.09375 C19.148438,4.054688 21.007813,7 25,7 C28.992188,7 30.851563,4.054688 31.40625,3.09375 L36.8125,3.875 C36.410156,5.324219 35.242188,10.222656 36.90625,15.625 C36.914063,15.644531 36.898438,15.667969 36.90625,15.6875 C36.90625,15.699219 36.90625,15.707031 36.90625,15.71875 C36.921875,15.828125 36.953125,15.933594 37,16.03125 C37,16.042969 37,16.050781 37,16.0625 L37,45 L13,45 L13,16.03125 C13,16.019531 13,16.011719 13,16 C13.023438,15.949219 13.046875,15.898438 13.0625,15.84375 C13.078125,15.792969 13.078125,15.738281 13.09375,15.6875 C13.09375,15.675781 13.09375,15.667969 13.09375,15.65625 C14.769531,10.242188 13.589844,5.324219 13.1875,3.875 L18.59375,3.09375 Z M11.46875,5.09375 C11.910156,7.328125 12.414063,11.367188 11.25,15.125 C11.246094,15.136719 11.222656,15.144531 11.21875,15.15625 C11.207031,15.175781 11.195313,15.199219 11.1875,15.21875 C11.1875,15.21875 10.152344,17.273438 9.125,19.46875 C8.613281,20.566406 8.113281,21.699219 7.71875,22.65625 C7.523438,23.136719 7.34375,23.5625 7.21875,23.9375 C7.09375,24.3125 7,24.566406 7,25 L7,38 L2,38 L2,25 C2,19.964844 4.644531,14.597656 7.34375,10.53125 C8.9375,8.132813 10.4375,6.28125 11.46875,5.09375 Z M38.53125,5.09375 C39.5625,6.28125 41.0625,8.132813 42.65625,10.53125 C45.355469,14.597656 48,19.964844 48,25 L48,38 L43,38 L43,25 C43,24.566406 42.90625,24.3125 42.78125,23.9375 C42.65625,23.5625 42.476563,23.136719 42.28125,22.65625 C41.886719,21.699219 41.386719,20.566406 40.875,19.46875 C39.847656,17.273438 38.8125,15.21875 38.8125,15.21875 C38.789063,15.152344 38.757813,15.089844 38.71875,15.03125 C37.589844,11.300781 38.09375,7.308594 38.53125,5.09375 Z"/>
</svg>
