<svg xmlns="http://www.w3.org/2000/svg" width="37" height="43" viewBox="0 0 37 43">
  <path fill="#FFFFFF" d="M7.7363902,1.42108547e-14 C7.4121712,0.058594 7.1387342,0.269531 7.0020152,0.570313 C6.8613902,0.871094 6.8809212,1.214844 7.0488902,1.5 L8.0176402,29.75 C6.1152962,33.679688 3.8965462,34.71875 2.3613902,35.71875 C0.998109204,36.609375 0.154359204,37.808594 0.0176402042,39.125 C-0.119078796,40.441406 0.544984204,41.769531 1.7988902,42.53125 C2.6621712,43.054688 3.6738902,43.09375 4.6113902,42.9375 C5.5488902,42.78125 6.4707652,42.433594 7.3613902,42.03125 C9.0606092,41.265625 10.5996712,40.28125 11.2363902,39.96875 C11.2402962,39.964844 11.2637342,39.972656 11.2676402,39.96875 C11.6074842,39.957031 12.0254532,39.929688 12.4863902,39.875 C12.5059212,39.871094 12.5293592,39.878906 12.5488902,39.875 C12.8965462,39.828125 13.2324842,39.742188 13.5488902,39.625 C14.3145152,39.339844 14.9824842,38.808594 15.4863902,38.09375 C16.0410782,37.308594 16.2402962,36.355469 16.2988902,35.375 C16.3457652,34.554688 16.2598282,33.742188 16.0176402,33 L16.0176402,15 L20.0176402,15 L20.0176402,32.9375 C19.7598282,33.695313 19.6856092,34.535156 19.7363902,35.375 C19.7949842,36.355469 19.9942032,37.308594 20.5488902,38.09375 C21.0527962,38.808594 21.7207652,39.339844 22.4863902,39.625 C22.8223282,39.75 23.1777962,39.828125 23.5488902,39.875 C24.0215462,39.929688 24.4551402,39.960938 24.7988902,39.96875 C25.4356092,40.28125 26.9746712,41.265625 28.6738902,42.03125 C29.5645152,42.433594 30.4863902,42.78125 31.4238902,42.9375 C32.3613902,43.09375 33.3731092,43.054688 34.2363902,42.53125 C35.4902962,41.769531 36.1543592,40.441406 36.0176402,39.125 C35.8809212,37.808594 35.0371712,36.609375 33.6738902,35.71875 C32.1387342,34.71875 29.9199842,33.679688 28.0176402,29.75 L29.0176402,1.1875 C29.0215462,1.136719 29.0215462,1.082031 29.0176402,1.03125 C29.0215462,0.980469 29.0215462,0.925781 29.0176402,0.875 C29.0176402,0.863281 29.0176402,0.855469 29.0176402,0.84375 C29.0176402,0.824219 29.0176402,0.800781 29.0176402,0.78125 C29.0059212,0.769531 28.9981092,0.761719 28.9863902,0.75 C28.9668592,0.664063 28.9356092,0.578125 28.8926402,0.5 C28.8809212,0.488281 28.8731092,0.480469 28.8613902,0.46875 C28.7676402,0.324219 28.6387342,0.207031 28.4863902,0.125 C28.4668592,0.113281 28.4434212,0.101563 28.4238902,0.09375 C28.4121712,0.082031 28.4043592,0.074219 28.3926402,0.0625 C28.3731092,0.050781 28.3496712,0.039063 28.3301402,0.03125 C28.3184212,0.03125 28.3106092,0.03125 28.2988902,0.03125 C28.2598282,0.019531 28.2168592,0.007813 28.1738902,1.42108547e-14 C28.1426402,1.42108547e-14 28.1113902,1.42108547e-14 28.0801402,1.42108547e-14 C28.0606092,1.42108547e-14 28.0371712,1.42108547e-14 28.0176402,1.42108547e-14 L8.0176402,1.42108547e-14 C7.9863902,1.42108547e-14 7.9551402,1.42108547e-14 7.9238902,1.42108547e-14 C7.8926402,1.42108547e-14 7.8613902,1.42108547e-14 7.8301402,1.42108547e-14 C7.7988902,1.42108547e-14 7.7676402,1.42108547e-14 7.7363902,1.42108547e-14 Z M9.0488902,2 L26.9863902,2 L26.9238902,4 L9.1113902,4 L9.0488902,2 Z M9.1738902,6 L17.0176402,6 L17.0176402,13 L15.0176402,13 C14.9863902,13 14.9551402,13 14.9238902,13 C14.8926402,13 14.8613902,13 14.8301402,13 C14.5098282,13.035156 14.2285782,13.21875 14.0645152,13.496094 C13.9043592,13.773438 13.8887342,14.113281 14.0176402,14.40625 L14.0176402,31.28125 C11.1074842,32.121094 10.0176402,34.890625 10.0176402,37.5 C10.0176402,37.78125 10.0410782,38.03125 10.0801402,38.3125 C9.1348282,38.8125 7.8926402,39.613281 6.5488902,40.21875 C5.7481092,40.582031 4.9356092,40.855469 4.2676402,40.96875 C3.5996712,41.082031 3.1465462,41.015625 2.8613902,40.84375 C2.1504532,40.410156 1.9277962,39.917969 1.9863902,39.34375 C2.0449842,38.769531 2.4746712,38.015625 3.4551402,37.375 C4.7559212,36.523438 7.6660782,35 9.7988902,30.625 C9.8106092,30.605469 9.8223282,30.582031 9.8301402,30.5625 C9.8379532,30.550781 9.8535782,30.542969 9.8613902,30.53125 C9.8848282,30.492188 9.9043592,30.449219 9.9238902,30.40625 C9.9356092,30.394531 9.9434212,30.386719 9.9551402,30.375 C9.9551402,30.355469 9.9551402,30.332031 9.9551402,30.3125 C9.9668592,30.300781 9.9746712,30.292969 9.9863902,30.28125 C10.0176402,30.167969 10.0254532,30.054688 10.0176402,29.9375 L10.0176402,29.90625 C10.0176402,29.875 10.0176402,29.84375 10.0176402,29.8125 L9.1738902,6 Z M19.0176402,6 L26.8613902,6 L26.0176402,29.6875 C26.0137342,29.738281 26.0137342,29.792969 26.0176402,29.84375 L26.0176402,29.9375 C26.0098282,30 26.0098282,30.0625 26.0176402,30.125 C26.0254532,30.15625 26.0371712,30.1875 26.0488902,30.21875 C26.0488902,30.230469 26.0488902,30.238281 26.0488902,30.25 C26.0567032,30.269531 26.0684212,30.292969 26.0801402,30.3125 C26.0801402,30.324219 26.0801402,30.332031 26.0801402,30.34375 C26.0879532,30.363281 26.0996712,30.386719 26.1113902,30.40625 C26.1113902,30.417969 26.1113902,30.425781 26.1113902,30.4375 C26.1192032,30.449219 26.1348282,30.457031 26.1426402,30.46875 C26.1699842,30.511719 26.2012342,30.554688 26.2363902,30.59375 C28.3692032,34.988281 31.2754532,36.523438 32.5801402,37.375 C33.5606092,38.015625 33.9902962,38.769531 34.0488902,39.34375 C34.1074842,39.917969 33.8848282,40.410156 33.1738902,40.84375 C32.8887342,41.015625 32.4356092,41.082031 31.7676402,40.96875 C31.0996712,40.855469 30.2871712,40.582031 29.4863902,40.21875 C28.1426402,39.613281 26.9004532,38.8125 25.9551402,38.3125 C25.9942032,38.03125 26.0176402,37.78125 26.0176402,37.5 C26.0176402,34.890625 24.9277962,32.121094 22.0176402,31.28125 L22.0176402,14 C22.0176402,13.449219 21.5684212,13 21.0176402,13 L19.0176402,13 L19.0176402,6 Z M14.0488902,33.375 C14.2285782,33.773438 14.3731092,34.527344 14.3301402,35.25 C14.2871712,35.972656 14.0567032,36.691406 13.8613902,36.96875 C13.5449842,37.414063 13.2754532,37.597656 12.8613902,37.75 C12.6426402,37.832031 12.3770152,37.894531 12.0488902,37.9375 C12.0293592,37.789063 12.0176402,37.648438 12.0176402,37.5 C12.0176402,35.941406 12.4082652,34.144531 14.0488902,33.375 Z M21.9863902,33.375 C23.6270152,34.144531 24.0176402,35.941406 24.0176402,37.5 C24.0176402,37.648438 24.0059212,37.789063 23.9863902,37.9375 C23.6582652,37.894531 23.3926402,37.832031 23.1738902,37.75 C22.7598282,37.597656 22.4902962,37.414063 22.1738902,36.96875 C21.9785782,36.691406 21.7481092,35.972656 21.7051402,35.25 C21.6621712,34.527344 21.8067032,33.773438 21.9863902,33.375 Z"/>
</svg>
