<svg xmlns="http://www.w3.org/2000/svg" width="48" height="50" viewBox="0 0 48 50">
  <path fill="#FFFFFF" d="M23.90625,0.96875 C23.863281,0.9765625 23.820313,0.9882812 23.78125,1 C23.316406,1.105469 22.988281,1.523438 23,2 L23,5.03125 C10.3125,5.472656 0,14.210938 0,27 C0.003906,27.445313 0.296875,27.832031 0.722656,27.957031 C1.148438,28.078125 1.605469,27.90625 1.84375,27.53125 C1.84375,27.53125 4.035156,24 9,24 C11.777344,24 14.21875,25.417969 15.65625,27.5625 C15.839844,27.832031 16.144531,27.996094 16.46875,28 L16.53125,28 C16.855469,27.996094 17.160156,27.832031 17.34375,27.5625 C18.605469,25.679688 20.636719,24.355469 23,24.0625 L23,44 C23,46.773438 20.773438,49 18,49 C15.226563,49 13,46.773438 13,44 C13.003906,43.640625 12.816406,43.304688 12.503906,43.121094 C12.191406,42.941406 11.808594,42.941406 11.496094,43.121094 C11.183594,43.304688 10.996094,43.640625 11,44 C11,47.855469 14.148438,51 18,51 C21.851563,51 25,47.855469 25,44 L25,24.0625 C27.363281,24.355469 29.394531,25.679688 30.65625,27.5625 C30.839844,27.832031 31.144531,27.996094 31.46875,28 L31.53125,28 C31.855469,27.996094 32.160156,27.832031 32.34375,27.5625 C33.78125,25.417969 36.21875,24 39,24 C42.960938,24 46.25,27.65625 46.25,27.65625 C46.523438,27.96875 46.960938,28.078125 47.351563,27.929688 C47.738281,27.785156 47.996094,27.414063 48,27 C47.996094,14.210938 37.6875,5.472656 25,5.03125 L25,2 C25.011719,1.710938 24.894531,1.433594 24.6875,1.238281 C24.476563,1.0390625 24.191406,0.9414062 23.90625,0.96875 Z M24,7 C35.40625,7 44.515625,13.945313 45.75,24.59375 C44.207031,23.351563 42.039063,22 39,22 C35.988281,22 33.332031,23.386719 31.5,25.5 C29.667969,23.386719 27.011719,22 24,22 C20.988281,22 18.332031,23.386719 16.5,25.5 C14.667969,23.386719 12.011719,22 9,22 C5.945313,22 3.746094,23.136719 2.28125,24.28125 C3.652344,13.808594 12.707031,7 24,7 Z" transform="translate(0 -1)"/>
</svg>
