<svg xmlns="http://www.w3.org/2000/svg" width="44" height="44" viewBox="0 0 44 44">
  <path fill="#FFFFFF" d="M14,-3.47622322e-18 C13.976547,-0.000173621328 13.9530952,0.000477814805 13.929688,0.0019531 C13.9264294,0.00258792026 13.9231741,0.00323896166 13.919922,0.0039062 C13.8898421,0.00580596622 13.8598635,0.0090645256 13.830078,0.0136719 C13.749539,0.026174349 13.6708302,0.0484751383 13.595703,0.0800781 C13.422513,0.1319544 12.065915,0.5419282 10.46875,1.2304688 C9.617975,1.5972393 8.724109,2.0322783 7.933594,2.5410156 C7.143078,3.0497529 6.4344901,3.6067986 6.0097656,4.4101562 C6.00911367,4.41080637 6.00846263,4.41145743 6.0078125,4.4121094 C4.8011157,6.7006355 0.1289062,15.009766 0.1289062,15.009766 C-0.138538164,15.4855469 0.0248681125,16.0878898 0.4960938,16.363281 L6.4960938,19.863281 C6.96907139,20.1389963 7.57582678,19.9831727 7.857422,19.513672 L9.267578,17.164062 L9.96875,25.351562 C9.99404,25.688489 10.00542,26.025031 10,26.359375 C9.98901,27.074644 9.90631,27.789481 9.755859,28.492188 C9.75447886,28.4993349 9.75317678,28.5064967 9.751953,28.513672 L7.017578,42.8125 C6.96172499,43.1052918 7.03938273,43.4077373 7.22938485,43.6374018 C7.41938697,43.8670664 7.70192851,44.0000109 8,44 L36,44 C36.2980715,44.0000109 36.580613,43.8670664 36.7706152,43.6374018 C36.9606173,43.4077373 37.038275,43.1052918 36.982422,42.8125 L34.248047,28.513672 C34.2468232,28.5064967 34.2455211,28.4993349 34.244141,28.492188 C34.093686,27.789478 34.01099,27.074644 34,26.359375 C33.9945,26.022602 34.0052,25.685641 34.03125,25.351562 L34.03125,25.34375 L34.732422,17.164062 L36.142578,19.513672 C36.4241732,19.9831725 37.0309285,20.1389962 37.503906,19.863281 L43.503906,16.363281 C43.9751318,16.0878899 44.1385383,15.485547 43.871094,15.009766 C43.871094,15.009766 39.198881,6.7006327 37.992188,4.4121094 C37.9915376,4.41145743 37.9908862,4.41080637 37.990234,4.4101562 C37.565556,3.6067834 36.856922,3.0497529 36.066406,2.5410156 C35.275891,2.0322783 34.382025,1.5972393 33.53125,1.2304688 C31.937628,0.5434555 30.586702,0.1355272 30.408203,0.0820312 C30.3064897,0.0384481884 30.1982485,0.0120478512 30.087891,0.0039062 C30.0586655,0.00131552649 30.0293401,1.21990902e-05 30,-3.47622322e-18 C29.9954427,-3.11511794e-05 29.9908853,-3.11511794e-05 29.986328,-3.47622322e-18 L22,-3.47622322e-18 L14.029297,-3.47622322e-18 L14,-3.47622322e-18 Z M15.292969,2 L22,2 L28.707031,2 C28.520646,2.5600229 28.238777,3.2503144 27.783203,3.9589844 C26.785746,5.5105837 25.166667,7 22,7 C18.833333,7 17.214254,5.5105837 16.216797,3.9589844 C15.761223,3.2503144 15.479354,2.5600229 15.292969,2 Z M13.292969,2.3222656 C13.514269,3.0606209 13.886845,4.0355701 14.533203,5.0410156 C15.785746,6.9894163 18.166667,9 22,9 C25.833333,9 28.214254,6.9894163 29.466797,5.0410156 C30.113155,4.0355701 30.485731,3.0606209 30.707031,2.3222656 C31.249915,2.4983273 31.682385,2.6103658 32.740234,3.0664062 C33.526834,3.4055108 34.337797,3.8065498 34.984375,4.2226562 C35.630953,4.6387627 36.089881,5.0945609 36.222656,5.3457031 C37.38819,7.556022 41.011118,13.988616 41.652344,15.128906 L37.349609,17.638672 L34.857422,13.486328 C34.6342851,13.1149866 34.1974313,12.9295353 33.7753,13.0269501 C33.3531686,13.1243649 33.0417561,13.4824929 33.003906,13.914062 L32.039062,25.179688 C32.0384005,25.1822894 32.0377495,25.1848934 32.037109,25.1875 C32.005569,25.588862 31.995463,25.990006 32.001953,26.390625 C32.014963,27.237356 32.111511,28.080861 32.289062,28.910156 L32.283203,28.888672 L34.791016,42 L9.208984,42 L11.716797,28.888672 L11.710938,28.910156 C11.888488,28.080861 11.985037,27.237356 11.998047,26.390625 C12.004547,25.988205 11.993051,25.587248 11.962891,25.189453 C11.9622562,25.1861948 11.9616052,25.1829397 11.960938,25.179688 L10.996094,13.914062 C10.9582439,13.4824929 10.6468314,13.1243649 10.2247,13.0269501 C9.80256866,12.9295353 9.36571494,13.1149866 9.142578,13.486328 L6.6503906,17.638672 L2.3476562,15.128906 C2.988882,13.988616 6.6118102,7.556022 7.777344,5.3457031 C7.910119,5.0945609 8.369047,4.6387628 9.015625,4.2226562 C9.662203,3.8065498 10.473166,3.4055108 11.259766,3.0664062 C12.317615,2.6103658 12.750085,2.4983273 13.292969,2.3222656 Z"/>
</svg>
