<svg xmlns="http://www.w3.org/2000/svg" width="40" height="40" viewBox="0 0 40 40">
  <g fill="none" fill-rule="evenodd">
    <polyline stroke="#FFFFFF" stroke-linecap="round" points="27.349 7 25.302 9.5 30.93 15 35 12.5"/>
    <path stroke="#FFFFFF" stroke-linecap="round" d="M25.7049767 10.251C23.4430698 12.462 20.9146047 13 16.6046512 13 15.5813953 18 12 28 12 28 12 28 22.2325581 24.5 27.3488372 23.5005 27.3488372 19.288 27.8993488 16.8175 30.1617674 14.607M12.5116279 27.5L21.2093023 19"/>
    <ellipse cx="22.198" cy="17.991" stroke="#FFFFFF" stroke-linecap="round" rx="1.405" ry="1.373"/>
    <path fill="#FFFFFF" fill-rule="nonzero" d="M23.2638809,3.31698088 L32.7638809,8.83310991 C34.7671617,9.99630526 36,12.1377412 36,14.4542381 L36,25.5457619 C36,27.8622588 34.7671617,30.0036947 32.7638809,31.1668901 L23.2638809,36.6830191 C21.2457307,37.8548483 18.7542693,37.8548483 16.7361191,36.6830191 L7.23611914,31.1668901 C5.23283826,30.0036947 4,27.8622588 4,25.5457619 L4,14.4542381 C4,12.1377412 5.23283826,9.99630526 7.23611914,8.83310991 L16.7361191,3.31698088 C18.7542693,2.14515175 21.2457307,2.14515175 23.2638809,3.31698088 Z M22.7617453,4.18176982 C21.0540798,3.1902221 18.9459202,3.1902221 17.2382547,4.18176982 L7.73825465,9.69789886 C6.04317084,10.6821411 5,12.4941253 5,14.4542381 L5,25.5457619 C5,27.5058747 6.04317084,29.3178589 7.73825465,30.3021011 L17.2382547,35.8182302 C18.9459202,36.8097779 21.0540798,36.8097779 22.7617453,35.8182302 L32.2617453,30.3021011 C33.9568292,29.3178589 35,27.5058747 35,25.5457619 L35,14.4542381 C35,12.4941253 33.9568292,10.6821411 32.2617453,9.69789886 L22.7617453,4.18176982 Z"/>
  </g>
</svg>
