<svg xmlns="http://www.w3.org/2000/svg" width="40" height="40" viewBox="0 0 40 40">
  <g fill="none" fill-rule="evenodd">
    <polyline stroke="#FFFFFF" stroke-linecap="round" stroke-width="1.5" points="27.349 7 25.302 9.5 30.93 15 35 12.5"/>
    <path stroke="#FFFFFF" stroke-linecap="round" stroke-width="1.5" d="M25.7049767 10.251C23.4430698 12.462 20.9146047 13 16.6046512 13 15.5813953 18 12 28 12 28 12 28 22.2325581 24.5 27.3488372 23.5005 27.3488372 19.288 27.8993488 16.8175 30.1617674 14.607M12.5116279 27.5L21.2093023 19"/>
    <ellipse cx="22.198" cy="17.991" stroke="#FFFFFF" stroke-linecap="round" stroke-width="1.5" rx="1.405" ry="1.373"/>
    <path fill="#FFFFFF" fill-rule="nonzero" d="M24.2222285,2.1247989 L33.1227708,7.4771423 C35.5285535,8.92386038 37,11.5257249 37,14.3329983 L37,25.6587111 C37,28.4659845 35.5285535,31.067849 33.1227708,32.5145671 L24.0218353,37.987417 C21.5461783,39.476154 18.4602034,39.5145732 15.9482509,38.0879301 L7.04918639,33.0337784 C4.5462985,31.6122835 3,28.9557935 3,26.0774092 L3,14.756614 C3,12.0181618 4.40070891,9.46998204 6.71271488,8.00241635 L15.8121726,2.2264572 C18.3701066,0.60278657 21.6257947,0.563432765 24.2222285,2.1247989 Z M23.1915358,3.8387629 C21.2442105,2.66773829 18.8024444,2.69725365 16.8839939,3.91500662 L7.78453616,9.69096577 C6.05053168,10.79164 5,12.7027748 5,14.756614 L5,26.0774092 C5,28.2361974 6.15972388,30.2285649 8.03688979,31.2946861 L16.9359543,36.3488379 C18.8199187,37.4188202 21.1343999,37.3900057 22.9911426,36.273453 L32.0920781,30.8006031 C33.8964151,29.7155645 35,27.7641661 35,25.6587111 L35,14.3329983 C35,12.2275433 33.8964151,10.2761449 32.0920781,9.1911063 L23.1915358,3.8387629 Z"/>
  </g>
</svg>
