<svg xmlns="http://www.w3.org/2000/svg" width="60" height="244" viewBox="0 0 60 244">
  <g fill="none" fill-rule="evenodd" transform="translate(0 19)">
    <path fill="#76899E" d="M16.5,22 C16.225,22 16,21.775 16,21.5 L16,16.5 C16,16.225 16.225,16 16.5,16 L21.5,16 C21.775,16 22,16.225 22,16.5 L22,21.5 C22,21.775 21.775,22 21.5,22 L16.5,22 Z M8.5,22 C8.225,22 8,21.775 8,21.5 L8,16.5 C8,16.225 8.225,16 8.5,16 L13.5,16 C13.775,16 14,16.225 14,16.5 L14,21.5 C14,21.775 13.775,22 13.5,22 L8.5,22 Z M0.5,22 C0.225,22 0,21.775 0,21.5 L0,16.5 C0,16.225 0.225,16 0.5,16 L5.5,16 C5.775,16 6,16.225 6,16.5 L6,21.5 C6,21.775 5.775,22 5.5,22 L0.5,22 Z M16.5,14 C16.225,14 16,13.775 16,13.5 L16,8.5 C16,8.225 16.225,8 16.5,8 L21.5,8 C21.775,8 22,8.225 22,8.5 L22,13.5 C22,13.775 21.775,14 21.5,14 L16.5,14 Z M8.5,14 C8.225,14 8,13.775 8,13.5 L8,8.5 C8,8.225 8.225,8 8.5,8 L13.5,8 C13.775,8 14,8.225 14,8.5 L14,13.5 C14,13.775 13.775,14 13.5,14 L8.5,14 Z M0.5,14 C0.225,14 0,13.775 0,13.5 L0,8.5 C0,8.225 0.225,8 0.5,8 L5.5,8 C5.775,8 6,8.225 6,8.5 L6,13.5 C6,13.775 5.775,14 5.5,14 L0.5,14 Z M16.5,6 C16.225,6 16,5.775 16,5.5 L16,0.5 C16,0.225 16.225,0 16.5,0 L21.5,0 C21.775,0 22,0.225 22,0.5 L22,5.5 C22,5.775 21.775,6 21.5,6 L16.5,6 Z M8.5,6 C8.225,6 8,5.775 8,5.5 L8,0.5 C8,0.225 8.225,0 8.5,0 L13.5,0 C13.775,0 14,0.225 14,0.5 L14,5.5 C14,5.775 13.775,6 13.5,6 L8.5,6 Z M0.5,6 C0.225,6 0,5.775 0,5.5 L0,0.5 C0,0.225 0.225,0 0.5,0 L5.5,0 C5.775,0 6,0.225 6,0.5 L6,5.5 C6,5.775 5.775,6 5.5,6 L0.5,6 Z" transform="translate(19)"/>
    <rect width="60" height="1" y="41" fill="#48617B" opacity=".334"/>
    <rect width="60" height="1" y="102" fill="#48617B" opacity=".334"/>
    <rect width="60" height="1" y="163" fill="#48617B" opacity=".334"/>
    <rect width="60" height="1" y="224" fill="#48617B" opacity=".334"/>
    <path fill="#76899E" fill-rule="nonzero" d="M15.859,13.845 L22.279,19.724 C22.486,19.909 22.492,20.22 22.299,20.416 L18.795,23.918 C18.6,24.113 18.287,24.106 18.102,23.901 L12.334,17.541 L15.859,13.845 L15.859,13.845 Z M3.28,7.518 C3.557,7.505 3.944,7.654 4.141,7.848 L7.138,10.804 L9.056,9.007 L6,5.992 C5.803,5.799 5.652,5.415 5.664,5.137 L5.687,4.619 C5.699,4.342 5.521,3.992 5.289,3.843 L2.449,2.002 C2.218,1.851 1.869,1.888 1.674,2.083 L0.236,3.52 C0.041,3.715 0.004,4.066 0.154,4.297 L1.986,7.139 C2.136,7.372 2.486,7.551 2.763,7.538 L3.28,7.518 L3.28,7.518 Z M23.578,6.026 L18.75,8.458 L15.969,4 L20.944,1.343 C19.011,-0.033 16.941,0.116 15.059,1.175 C12.591,2.565 11.503,5.438 12.347,8.018 L0.829,19.535 C0.44,19.924 0.44,20.56 0.829,20.949 L2.951,23.07 C3.34,23.459 3.976,23.459 4.365,23.07 L5.78,21.656 L15.819,11.616 C17.353,12.163 19.12,12.044 20.68,11.168 C22.561,10.11 23.751,8.396 23.578,6.026 Z" transform="translate(18 182)"/>
    <path fill="#FFFFFF" fill-rule="nonzero" d="M22,0 C19.239,0 17,2.238 17,5 C17,7.762 19.239,10 22,10 C24.761,10 27,7.762 27,5 C27,2.238 24.761,0 22,0 Z M25,5.5 C25,5.775 24.775,6 24.5,6 L23,6 L23,7.5 C23,7.775 22.775,8 22.5,8 L21.5,8 C21.225,8 21,7.775 21,7.5 L21,6 L19.5,6 C19.225,6 19,5.775 19,5.5 L19,4.5 C19,4.225 19.225,4 19.5,4 L21,4 L21,2.5 C21,2.225 21.225,2 21.5,2 L22.5,2 C22.775,2 23,2.225 23,2.5 L23,4 L24.5,4 C24.775,4 25,4.225 25,4.5 L25,5.5 Z M12,8.5 L12,2 L14.715,4.715 C14.711,4.81 14.7,4.904 14.7,5 C14.7,6.477 15.144,7.85 15.901,9 L12.5,9 C12.225,9 12,8.775 12,8.5 Z M16.696,10 C17.346,10.689 18.127,11.251 19,11.647 L19,25.5 C19,25.775 18.775,26 18.5,26 L0.5,26 C0.225,26 0,25.775 0,25.5 L0,2.5 C0,2.225 0.225,2 0.5,2 L11,2 L11,9.5 C11,9.775 11.225,10 11.5,10 L16.696,10 Z" transform="translate(18 59)"/>
    <g fill="#76899E" fill-rule="nonzero" transform="translate(17 122)">
      <path d="M12.171,10.089 C12.12,10.023 12.052,10 11.985,10 C11.932,10 11.881,10.03 11.841,10.083 L7.057,15.737 C6.966,15.854 7.014,15.988 7.162,15.988 L10,16 L10,21.607 C10,21.882 10.131,21.991 10.406,21.992 L13.599,22 C13.874,22.001 13.989,21.893 13.99,21.617 L13.999,16 L16.848,16 C16.997,16 17.044,15.857 16.953,15.74 L12.171,10.089 L12.171,10.089 Z"/>
      <path d="M19,4.188 C18.373,4.188 17.769,4.291 17.204,4.475 C16.049,1.921 13.486,0.141 10.5,0.141 C6.435,0.141 3.141,3.436 3.141,7.5 C3.141,7.753 3.154,8.003 3.179,8.249 C1.452,8.626 0.157,10.238 0.157,12.078 C0.156,14.2 1.877,16 4,16 L5.234,16 C5.198,15.566 5.312,15.124 5.596,14.757 L10.619,9.05 C10.911,8.661 11.429,8.401 11.984,8.401 C12.556,8.401 13.084,8.659 13.434,9.108 L18.376,14.708 C18.689,15.11 18.812,15.562 18.78,16.001 L19.201,16.001 C22.411,16.001 24.811,13.316 24.811,10.095 C24.812,6.875 22.21,4.188 19,4.188 Z"/>
    </g>
  </g>
</svg>
