<svg xmlns="http://www.w3.org/2000/svg" width="40" height="40" viewBox="0 0 40 40">
  <path fill="#F7F9FA" fill-rule="evenodd" d="M137.537483,0 L154.462517,0 C158.474351,0 159.929139,0.41771525 161.395806,1.20209717 C162.862472,1.98647908 164.013521,3.13752767 164.797903,4.60419433 C165.582285,6.070861 166,7.52564907 166,11.5374834 L166,28.4625166 C166,32.4743509 165.582285,33.929139 164.797903,35.3958057 C164.013521,36.8624723 162.862472,38.0135209 161.395806,38.7979028 C159.929139,39.5822847 158.474351,40 154.462517,40 L137.537483,40 C133.525649,40 132.070861,39.5822847 130.604194,38.7979028 C129.137528,38.0135209 127.986479,36.8624723 127.202097,35.3958057 C126.417715,33.929139 126,32.4743509 126,28.4625166 L126,11.5374834 C126,7.52564907 126.417715,6.070861 127.202097,4.60419433 C127.986479,3.13752767 129.137528,1.98647908 130.604194,1.20209717 C132.070861,0.41771525 133.525649,0 137.537483,0 Z" transform="translate(-126)"/>
</svg>
