<svg height="12" viewBox="0 0 12 12" width="12" xmlns="http://www.w3.org/2000/svg"><path d="m8.61283506 10.1378379c.01555635.2743574-.13081475.6583164-.32597622.8534779l-.28567114.2856711c-.19445437.1944544-.39315137.1315219-.44264885-.1385929l-.77286771-4.3027448-1.85898373 1.85898373c.01979899.61094026.02192031 1.39229327-.09475231 1.50896587l-.45325544.4532554c-.19445437.1944544-.42426407.1400072-.51123821-.1209152l-.54942197-2.35395848-2.35395847-.54942197c-.2609224-.08697414-.31536962-.31678384-.12091526-.51123821l.45254834-.45254834c.11667262-.11667262.89802561-.11455129 1.50896587-.09475231l1.85969084-1.85969083-4.30274477-.77286771c-.27011479-.04949748-.33304729-.24819448-.13859293-.44264885l.28567114-.28567114c.19516148-.19516147.57841335-.34223968.85347789-.32597622l4.8592378.27011479 2.39992041-2.39992042c.58548442-.58548441 1.53512886-.58619152 2.12132036 0s.5854844 1.53583593 0 2.12132035l-2.39992043 2.39992041z"/></svg>