<svg height="12" viewBox="0 0 12 12" width="12" xmlns="http://www.w3.org/2000/svg"><path d="m11.6222609 4.5805c-.3062609-.385-.7794783-.5805-1.3909566-.5805h-1.36173908v-.156s.61565217-.26.8853913-.5845c.15495652-.2035.27182608-.353.21495652-1.0405s-1.18226087-1.297-1.91113043-.9315c-.26556522-.42-.60052174-.664-1.08939131-.7625-.10330434-.021-.21026087-.031-.31773913-.031-.36052174 0-.70069565.115-.9787826.2805-.36469566-.395-.95843479-.7295-1.80573914-.7295-.51652173 0-.95686956.215-1.24017391.6055-.13304348.183-.22226087.39-.27808695.6-.22330435-.0695-.468-.106-.72782609-.106-.89426087 0-1.62104348.756-1.62104348 1.6845 0 .5185.52173913.8905.52173913 1.586v2.085 4.5c0 .552.43773913 1 1.01373913 1h6.26086957c.57652174 0 1.07321739-.448 1.07321739-1v-1-.0585c1.04347826-.167 2.17095648-.715 2.68382608-2.504.3845217-1.342.5264348-2.2815.0688696-2.857zm-8.49182612 5.6685c0 .275-.23478261.5-.52173913.5s-.52173913-.225-.52173913-.5c0 0 0-2.468 0-2.6555.68452174 0 1.04347826-.547 1.04347826-.992zm2.08695652 0c0 .275-.2347826.5-.52173913.5-.28695652 0-.52173913-.225-.52173913-.5v-4.4765c0-.2795.02452174-.7225.19565218-.999.13043478-.211.84782608-.3045.84782608-.3045zm2.08695653-.749v.749c0 .275-.23478261.5-.52173913.5-.28695653 0-.52173913-.225-.52173913-.5v-5.8895c.50608695-.0585 1.04347826-.133 1.04347826-.133zm-2.796-5.867c-.66678261.094-.9292174.6405-.96208696 1.133-.01982609.3005-.1226087.664-.38973913.664-.29634783 0-.43356522-.2305-.49617391-.422-.04434783-.135-.05165218.0055-.05165218.0055v1.4315c0 .2385-.17217391.5-.52226087.5-.35008695 0-.52121739-.2665-.52121739-.508v-1.844c0-1.1125-1.11704348-2.047-.01617391-2.539.636-.25 1.34504348.461 1.34504348.461s-.07043479-1.4905 1.05965217-1.539c1.10034783-.047 1.41286957.721 1.53286957 1.2735.26086956-.646.75026087-.969 1.272-.875.5133913.117.77426087.844.77426087.844.35895652-.375 1.56521739-.427 1.56521739.3205-.00052174 1.1615-4.15982609 1.033-4.58973913 1.094zm6.11530437 3.617c-.3313044 1.1565-1.23234785 1.5145-1.75408698 1.675v-.425-3.5h1.50417388c.3626087 0 .4972174.1065.5608696.187.110087.138.0808696.6945-.3109565 2.063z"/></svg>