<svg height="12" viewBox="0 0 13 12" width="13" xmlns="http://www.w3.org/2000/svg"><path d="m8.56888062 11.4782609v-3.39913047c.2101896.16643479.47028033.26869566.7560777.26869566.69609558 0 1.26012948-.58382609 1.26012948-1.30434783 0-.09026087-.0090729-.17843478-.0257066-.26347826.0085689 0 .0166337.0026087.0257066.0026087.8352139 0 1.5121554-.70069566 1.5121554-1.5652174 0-.55669565-.282773-1.04243478-.7056725-1.32.1245008-.22747826.2016207-.4867826.2016207-.76695652 0-.86452174-.6769415-1.56521739-1.5121554-1.56521739-.19254777 0-.37501452.04069565-.54437592.10852174-.18498702-.95426087-.99903067-1.67373913-1.97588306-1.67373913-1.11345043 0-2.01620721.93443478-2.01620721 2.08695652-.83521383 0-1.5121554.70069565-1.5121554 1.56521739 0 .27913044.07611182.53686957.20010856.76382609-.41281842.26556522-.69458338.732-.71121709 1.27252174-.02671474.85930435.62452018 1.57826087 1.4546935 1.60591304.03024311.00104348.05847001-.00521739.08871312-.00626087.11038734.60313044.62099182 1.05965218 1.23593501 1.05965218.28478927 0 .54538405-.10069566.7560777-.26556522v3.39600003h-.2520259c-.13861424 0-.2520259.1173913-.2520259.2608695v.2608696h2.52025901v-.2608696c0-.1434782-.11341166-.2608695-.2520259-.2608695zm-3.02431081-1.56521742h-4.53646621c-.27722849 0-.5040518.23478262-.5040518.52173912s.22682331.5217391.5040518.5217391v1.0434783h1.0081036v-1.0434783h2.52025901v1.0434783h1.0081036v-1.0434783c.27722849 0 .5040518-.2347826.5040518-.5217391s-.22682331-.52173912-.5040518-.52173912zm7.45543019-2.34782609c0-.46956522-.2656353-.86608696-.6466985-1.05965217-.2752122.40330435-.671901.71165217-1.1381489.85826087-.1486953.94173913-.9395526 1.66226087-1.89019428 1.66226087-.03377147 0-.06754294-.00104348-.10081036-.0026087v.69495652c.10937924.05008696.22581521.08608696.35283626.08608696.18649917 0 .36039704-.05843478.50405178-.15913044v1.8328696c-.13861422 0-.25202588.1173913-.25202588.2608695v.2608696h1.51215538v-.2608696c0-.1434782-.1134116-.2608695-.2520259-.2608695v-1.83339133c.1436548.10017391.3175527.15913043.5040518.15913043.4985073 0 .9027568-.41843478.9027568-.93443478 0-.10121739-.019658-.19721739-.048389-.28904348.330658-.21026087.5524408-.58434783.5524408-1.01530435z"/></svg>