<svg height="13" viewBox="0 0 12 13" width="12" xmlns="http://www.w3.org/2000/svg"><path d="m10.226087 2.5v-.5c0-.9925-.84260874-1.8005-1.87826091-1.8005h-1.56521739c-.50139131 0-.95530435.192-1.29234783.5h-.7946087c-1.03565217 0-1.87826087.8075-1.87826087 1.8005h-.73043478l-2.08695652 2v8.5h9.91304348l2.08695652-2v-8.5zm-.626087-.5v.5h-1.46086957c0-.793-.54156521-1.4605-1.28556521-1.6995h1.49426087c.69078261 0 1.25217391.538 1.25217391 1.1995zm-6.15652174 2.5v-1h4.06956522v1zm2.08695652-2v-.5c0-.2615.09026087-.5025.23947826-.6995h.49095653c.6907826 0 1.25217391.538 1.25217391 1.1995zm-.83478261-1.1995h.35686957c-.09547826.215-.14817391.4515-.14817391.6995v.5h-1.46086957c0-.6615.56139131-1.1995 1.25217391-1.1995zm-3.13043478 3.199 1.04347826-.9995h.20869565v1zm8.08695652.0005h-1.51304348v-1h2.55652177z"/></svg>