<svg height="10" viewBox="0 0 12 10" width="12" xmlns="http://www.w3.org/2000/svg"><path d="m11 2h-1.5s-.5-2-2.5-2c-1.5 0-2 0-2 0-2 0-2.5 2-2.5 2h-1.5c-.55 0-1 .45-1 1v6c0 .55.45 1 1 1h10c.55 0 1-.45 1-1v-6c0-.55-.45-1-1-1zm-5 6.297c-1.266 0-2.297-1.031-2.297-2.297s1.031-2.297 2.297-2.297 2.297 1.031 2.297 2.297-1.031 2.297-2.297 2.297zm4-4.297h-1v-1h1zm-3.271 1.271c.402631.402631.402631 1.05542 0 1.45805-.402631.402631-1.05542.402631-1.45805 0-.402631-.402631-.402631-1.05542 0-1.45805.402631-.402631 1.05542-.402631 1.45805 0z"/></svg>