<svg height="13" viewBox="0 0 10 13" width="10" xmlns="http://www.w3.org/2000/svg"><path d="m3.328 10.5-1.328 2.5h-2l2.2325-2.5zm3.3085 0 1.3635 2.5h2l-2.266-2.5zm3.3635-4.5v1.5c0 1-.5 2.5-2 2.5-.5 0-5.5 0-6 0-1.5 0-2-1-2-2.5s0-.5 0-1.5.848-5.0165.848-5.0165c.0835-.544.602-.9835 1.1525-.9835h5.9985c.5505 0 1.069.4395 1.153.9835 0 0 .848 4.0165.848 5.0165zm-7 1.5-2-1v1.5l2 .5zm6-1-2 1v1l2-.5zm0-1-.75-4.359c-.009-.0565-.107-.141-.1645-.141h-6.148c-.0575 0-.156.0845-.1645.1405l-.773 4.3595s2 1.156 4 1.156 4-1.156 4-1.156z"/></svg>